<svg width="1241" height="418" viewBox="0 0 1241 418" fill="none" xmlns="http://www.w3.org/2000/svg">
<rect y="284" width="1" height="137" transform="rotate(-90 0 284)" fill="url(#paint0_linear)"/>
<rect x="349" y="377" width="1" height="137" transform="rotate(-90 349 377)" fill="url(#paint1_linear)"/>
<rect x="949" y="103" width="1" height="137" transform="rotate(-90 949 103)" fill="url(#paint2_linear)"/>
<rect x="1104" y="305" width="1" height="137" transform="rotate(-90 1104 305)" fill="url(#paint3_linear)"/>
<circle cx="69.5" cy="283.5" r="2.5" fill="#1F5ED8"/>
<circle cx="415.5" cy="376.5" r="2.5" fill="#1F5ED8"/>
<circle cx="1017.5" cy="102.5" r="2.5" fill="#1F5ED8"/>
<circle cx="1172.5" cy="304.5" r="2.5" fill="#1F5ED8"/>
<g filter="url(#filter0_d)">
<path opacity="0.3" d="M351.35 31.9258L355.034 25.6367H356.49L352.983 31.8301H355.636V30.1211L356.976 30.0254V31.8301H358.521V33.0059H356.976V34.8242H358.001V36H354.638V34.8242H355.636V33.0059H351.336L351.35 31.9258Z" fill="url(#paint4_linear)"/>
<path d="M372.686 12.9258L376.37 6.63672H377.826L374.319 12.8301H376.972V11.1211L378.312 11.0254V12.8301H379.856V14.0059H378.312V15.8242H379.337V17H375.974V15.8242H376.972V14.0059H372.672L372.686 12.9258Z" fill="url(#paint5_linear)"/>
<path opacity="0.4" d="M310.35 302.926L314.034 296.637H315.49L311.983 302.83H314.636V301.121L315.976 301.025V302.83H317.521V304.006H315.976V305.824H317.001V307H313.638V305.824H314.636V304.006H310.336L310.35 302.926Z" fill="url(#paint6_linear)"/>
<path opacity="0.3" d="M371.686 121.926L375.37 115.637H376.826L373.319 121.83H375.972V120.121L377.312 120.025V121.83H378.856V123.006H377.312V124.824H378.337V126H374.974V124.824H375.972V123.006H371.672L371.686 121.926Z" fill="url(#paint7_linear)"/>
<path opacity="0.2" d="M265.35 86.9258L269.034 80.6367H270.49L266.983 86.8301H269.636V85.1211L270.976 85.0254V86.8301H272.521V88.0059H270.976V89.8242H272.001V91H268.638V89.8242H269.636V88.0059H265.336L265.35 86.9258Z" fill="url(#paint8_linear)"/>
<path opacity="0.2" d="M1049.35 140.926L1053.03 134.637H1054.49L1050.98 140.83H1053.64V139.121L1054.98 139.025V140.83H1056.52V142.006H1054.98V143.824H1056V145H1052.64V143.824H1053.64V142.006H1049.34L1049.35 140.926Z" fill="url(#paint9_linear)"/>
<path opacity="0.3" d="M243.35 358.926L247.034 352.637H248.49L244.983 358.83H247.636V357.121L248.976 357.025V358.83H250.521V360.006H248.976V361.824H250.001V363H246.638V361.824H247.636V360.006H243.336L243.35 358.926Z" fill="url(#paint10_linear)"/>
<path opacity="0.3" d="M242.35 399.926L246.034 393.637H247.49L243.983 399.83H246.636V398.121L247.976 398.025V399.83H249.521V401.006H247.976V402.824H249.001V404H245.638V402.824H246.636V401.006H242.336L242.35 399.926Z" fill="url(#paint11_linear)"/>
<path opacity="0.2" d="M477.35 305.926L481.034 299.637H482.49L478.983 305.83H481.636V304.121L482.976 304.025V305.83H484.521V307.006H482.976V308.824H484.001V310H480.638V308.824H481.636V307.006H477.336L477.35 305.926Z" fill="url(#paint12_linear)"/>
<path opacity="0.3" d="M334.623 62.6367L332.299 66.5127C332.577 66.3942 332.827 66.3258 333.051 66.3076C333.279 66.2894 333.481 66.2803 333.659 66.2803C334.078 66.2803 334.484 66.36 334.876 66.5195C335.268 66.6745 335.614 66.8955 335.915 67.1826C336.22 67.4652 336.464 67.8047 336.646 68.2012C336.829 68.5931 336.92 69.026 336.92 69.5C336.92 70.0788 336.822 70.5938 336.626 71.0449C336.43 71.4961 336.166 71.8766 335.833 72.1865C335.5 72.4964 335.113 72.7334 334.671 72.8975C334.233 73.057 333.769 73.1367 333.276 73.1367C332.812 73.1367 332.363 73.0524 331.93 72.8838C331.501 72.7152 331.121 72.4805 330.788 72.1797C330.455 71.8743 330.189 71.5098 329.988 71.0859C329.792 70.6576 329.694 70.1836 329.694 69.6641C329.694 69.263 329.77 68.8665 329.92 68.4746C330.075 68.0827 330.266 67.6725 330.494 67.2441L333.03 62.6367H334.623ZM333.126 67.4014C332.798 67.4014 332.518 67.4538 332.285 67.5586C332.057 67.6589 331.841 67.8024 331.636 67.9893C331.431 68.1715 331.269 68.4062 331.15 68.6934C331.032 68.9759 330.973 69.304 330.973 69.6777C330.973 70.0332 331.032 70.3522 331.15 70.6348C331.269 70.9173 331.433 71.1566 331.643 71.3525C331.852 71.5439 332.098 71.6921 332.381 71.7969C332.668 71.8971 332.978 71.9473 333.311 71.9473C333.62 71.9473 333.917 71.8926 334.199 71.7832C334.482 71.6738 334.73 71.5189 334.944 71.3184C335.159 71.1178 335.329 70.8786 335.457 70.6006C335.585 70.3226 335.648 70.015 335.648 69.6777C335.648 69.304 335.58 68.9759 335.443 68.6934C335.307 68.4062 335.122 68.167 334.89 67.9756C334.662 67.7842 334.395 67.6406 334.09 67.5449C333.785 67.4492 333.463 67.4014 333.126 67.4014Z" fill="url(#paint13_linear)"/>
<path opacity="0.5" d="M105.299 194.637L102.975 198.513C103.253 198.394 103.503 198.326 103.727 198.308C103.954 198.289 104.157 198.28 104.335 198.28C104.754 198.28 105.16 198.36 105.552 198.52C105.944 198.674 106.29 198.896 106.591 199.183C106.896 199.465 107.14 199.805 107.322 200.201C107.505 200.593 107.596 201.026 107.596 201.5C107.596 202.079 107.498 202.594 107.302 203.045C107.106 203.496 106.841 203.877 106.509 204.187C106.176 204.496 105.789 204.733 105.347 204.897C104.909 205.057 104.444 205.137 103.952 205.137C103.487 205.137 103.038 205.052 102.605 204.884C102.177 204.715 101.797 204.48 101.464 204.18C101.131 203.874 100.865 203.51 100.664 203.086C100.468 202.658 100.37 202.184 100.37 201.664C100.37 201.263 100.445 200.867 100.596 200.475C100.751 200.083 100.942 199.673 101.17 199.244L103.706 194.637H105.299ZM103.802 199.401C103.474 199.401 103.193 199.454 102.961 199.559C102.733 199.659 102.517 199.802 102.312 199.989C102.106 200.172 101.945 200.406 101.826 200.693C101.708 200.976 101.648 201.304 101.648 201.678C101.648 202.033 101.708 202.352 101.826 202.635C101.945 202.917 102.109 203.157 102.318 203.353C102.528 203.544 102.774 203.692 103.057 203.797C103.344 203.897 103.654 203.947 103.986 203.947C104.296 203.947 104.592 203.893 104.875 203.783C105.158 203.674 105.406 203.519 105.62 203.318C105.834 203.118 106.005 202.879 106.133 202.601C106.26 202.323 106.324 202.015 106.324 201.678C106.324 201.304 106.256 200.976 106.119 200.693C105.982 200.406 105.798 200.167 105.565 199.976C105.338 199.784 105.071 199.641 104.766 199.545C104.46 199.449 104.139 199.401 103.802 199.401Z" fill="url(#paint14_linear)"/>
<path opacity="0.2" d="M334.623 169.637L332.299 173.513C332.577 173.394 332.827 173.326 333.051 173.308C333.279 173.289 333.481 173.28 333.659 173.28C334.078 173.28 334.484 173.36 334.876 173.52C335.268 173.674 335.614 173.896 335.915 174.183C336.22 174.465 336.464 174.805 336.646 175.201C336.829 175.593 336.92 176.026 336.92 176.5C336.92 177.079 336.822 177.594 336.626 178.045C336.43 178.496 336.166 178.877 335.833 179.187C335.5 179.496 335.113 179.733 334.671 179.897C334.233 180.057 333.769 180.137 333.276 180.137C332.812 180.137 332.363 180.052 331.93 179.884C331.501 179.715 331.121 179.48 330.788 179.18C330.455 178.874 330.189 178.51 329.988 178.086C329.792 177.658 329.694 177.184 329.694 176.664C329.694 176.263 329.77 175.867 329.92 175.475C330.075 175.083 330.266 174.673 330.494 174.244L333.03 169.637H334.623ZM333.126 174.401C332.798 174.401 332.518 174.454 332.285 174.559C332.057 174.659 331.841 174.802 331.636 174.989C331.431 175.172 331.269 175.406 331.15 175.693C331.032 175.976 330.973 176.304 330.973 176.678C330.973 177.033 331.032 177.352 331.15 177.635C331.269 177.917 331.433 178.157 331.643 178.353C331.852 178.544 332.098 178.692 332.381 178.797C332.668 178.897 332.978 178.947 333.311 178.947C333.62 178.947 333.917 178.893 334.199 178.783C334.482 178.674 334.73 178.519 334.944 178.318C335.159 178.118 335.329 177.879 335.457 177.601C335.585 177.323 335.648 177.015 335.648 176.678C335.648 176.304 335.58 175.976 335.443 175.693C335.307 175.406 335.122 175.167 334.89 174.976C334.662 174.784 334.395 174.641 334.09 174.545C333.785 174.449 333.463 174.401 333.126 174.401Z" fill="url(#paint15_linear)"/>
<path opacity="0.3" d="M525.299 6.63672L522.975 10.5127C523.253 10.3942 523.503 10.3258 523.727 10.3076C523.954 10.2894 524.157 10.2803 524.335 10.2803C524.754 10.2803 525.16 10.36 525.552 10.5195C525.944 10.6745 526.29 10.8955 526.591 11.1826C526.896 11.4652 527.14 11.8047 527.322 12.2012C527.505 12.5931 527.596 13.026 527.596 13.5C527.596 14.0788 527.498 14.5938 527.302 15.0449C527.106 15.4961 526.841 15.8766 526.509 16.1865C526.176 16.4964 525.789 16.7334 525.347 16.8975C524.909 17.057 524.444 17.1367 523.952 17.1367C523.487 17.1367 523.038 17.0524 522.605 16.8838C522.177 16.7152 521.797 16.4805 521.464 16.1797C521.131 15.8743 520.865 15.5098 520.664 15.0859C520.468 14.6576 520.37 14.1836 520.37 13.6641C520.37 13.263 520.445 12.8665 520.596 12.4746C520.751 12.0827 520.942 11.6725 521.17 11.2441L523.706 6.63672H525.299ZM523.802 11.4014C523.474 11.4014 523.193 11.4538 522.961 11.5586C522.733 11.6589 522.517 11.8024 522.312 11.9893C522.106 12.1715 521.945 12.4062 521.826 12.6934C521.708 12.9759 521.648 13.304 521.648 13.6777C521.648 14.0332 521.708 14.3522 521.826 14.6348C521.945 14.9173 522.109 15.1566 522.318 15.3525C522.528 15.5439 522.774 15.6921 523.057 15.7969C523.344 15.8971 523.654 15.9473 523.986 15.9473C524.296 15.9473 524.592 15.8926 524.875 15.7832C525.158 15.6738 525.406 15.5189 525.62 15.3184C525.834 15.1178 526.005 14.8786 526.133 14.6006C526.26 14.3226 526.324 14.015 526.324 13.6777C526.324 13.304 526.256 12.9759 526.119 12.6934C525.982 12.4062 525.798 12.167 525.565 11.9756C525.338 11.7842 525.071 11.6406 524.766 11.5449C524.46 11.4492 524.139 11.4014 523.802 11.4014Z" fill="url(#paint16_linear)"/>
<path opacity="0.3" d="M503.623 61.6367L501.299 65.5127C501.577 65.3942 501.827 65.3258 502.051 65.3076C502.279 65.2894 502.481 65.2803 502.659 65.2803C503.078 65.2803 503.484 65.36 503.876 65.5195C504.268 65.6745 504.614 65.8955 504.915 66.1826C505.22 66.4652 505.464 66.8047 505.646 67.2012C505.829 67.5931 505.92 68.026 505.92 68.5C505.92 69.0788 505.822 69.5938 505.626 70.0449C505.43 70.4961 505.166 70.8766 504.833 71.1865C504.5 71.4964 504.113 71.7334 503.671 71.8975C503.233 72.057 502.769 72.1367 502.276 72.1367C501.812 72.1367 501.363 72.0524 500.93 71.8838C500.501 71.7152 500.121 71.4805 499.788 71.1797C499.455 70.8743 499.189 70.5098 498.988 70.0859C498.792 69.6576 498.694 69.1836 498.694 68.6641C498.694 68.263 498.77 67.8665 498.92 67.4746C499.075 67.0827 499.266 66.6725 499.494 66.2441L502.03 61.6367H503.623ZM502.126 66.4014C501.798 66.4014 501.518 66.4538 501.285 66.5586C501.057 66.6589 500.841 66.8024 500.636 66.9893C500.431 67.1715 500.269 67.4062 500.15 67.6934C500.032 67.9759 499.973 68.304 499.973 68.6777C499.973 69.0332 500.032 69.3522 500.15 69.6348C500.269 69.9173 500.433 70.1566 500.643 70.3525C500.852 70.5439 501.098 70.6921 501.381 70.7969C501.668 70.8971 501.978 70.9473 502.311 70.9473C502.62 70.9473 502.917 70.8926 503.199 70.7832C503.482 70.6738 503.73 70.5189 503.944 70.3184C504.159 70.1178 504.329 69.8786 504.457 69.6006C504.585 69.3226 504.648 69.015 504.648 68.6777C504.648 68.304 504.58 67.9759 504.443 67.6934C504.307 67.4062 504.122 67.167 503.89 66.9756C503.662 66.7842 503.395 66.6406 503.09 66.5449C502.785 66.4492 502.463 66.4014 502.126 66.4014Z" fill="url(#paint17_linear)"/>
<path opacity="0.3" d="M435.595 62.8887C435.85 62.7155 436.112 62.5856 436.381 62.499C436.65 62.4079 436.957 62.3623 437.304 62.3623C437.814 62.3623 438.284 62.4535 438.712 62.6357C439.14 62.818 439.507 63.0641 439.812 63.374C440.122 63.6839 440.362 64.0462 440.53 64.4609C440.703 64.8711 440.79 65.3063 440.79 65.7666C440.79 66.2314 440.706 66.6735 440.537 67.0928C440.368 67.5075 440.129 67.8721 439.819 68.1865C439.509 68.501 439.136 68.7516 438.698 68.9385C438.265 69.1208 437.782 69.2119 437.249 69.2119C436.843 69.2119 436.465 69.1572 436.114 69.0479C435.763 68.943 435.447 68.7949 435.164 68.6035C434.882 68.4076 434.635 68.1751 434.426 67.9062C434.221 67.6374 434.057 67.3434 433.934 67.0244L435.055 66.4639C435.128 66.6963 435.235 66.9128 435.376 67.1133C435.517 67.3092 435.684 67.4801 435.875 67.626C436.066 67.7673 436.278 67.8789 436.511 67.9609C436.743 68.0384 436.989 68.0771 437.249 68.0771C437.577 68.0771 437.88 68.0179 438.158 67.8994C438.441 67.7764 438.685 67.61 438.89 67.4004C439.099 67.1908 439.263 66.9469 439.382 66.6689C439.5 66.3864 439.56 66.0856 439.56 65.7666C439.56 65.443 439.5 65.1445 439.382 64.8711C439.263 64.5931 439.099 64.3538 438.89 64.1533C438.68 63.9482 438.434 63.7887 438.151 63.6748C437.873 63.5563 437.573 63.4971 437.249 63.4971C436.884 63.4971 436.547 63.5632 436.237 63.6953C435.932 63.8229 435.677 63.9961 435.472 64.2148L434.467 64.0576V58.6367H440.305V59.7715H435.595V62.8887Z" fill="url(#paint18_linear)"/>
<path opacity="0.5" d="M415.271 28.8887C415.526 28.7155 415.788 28.5856 416.057 28.499C416.326 28.4079 416.633 28.3623 416.979 28.3623C417.49 28.3623 417.959 28.4535 418.388 28.6357C418.816 28.818 419.183 29.0641 419.488 29.374C419.798 29.6839 420.037 30.0462 420.206 30.4609C420.379 30.8711 420.466 31.3063 420.466 31.7666C420.466 32.2314 420.382 32.6735 420.213 33.0928C420.044 33.5075 419.805 33.8721 419.495 34.1865C419.185 34.501 418.812 34.7516 418.374 34.9385C417.941 35.1208 417.458 35.2119 416.925 35.2119C416.519 35.2119 416.141 35.1572 415.79 35.0479C415.439 34.943 415.122 34.7949 414.84 34.6035C414.557 34.4076 414.311 34.1751 414.102 33.9062C413.896 33.6374 413.732 33.3434 413.609 33.0244L414.73 32.4639C414.803 32.6963 414.91 32.9128 415.052 33.1133C415.193 33.3092 415.359 33.4801 415.551 33.626C415.742 33.7673 415.954 33.8789 416.187 33.9609C416.419 34.0384 416.665 34.0771 416.925 34.0771C417.253 34.0771 417.556 34.0179 417.834 33.8994C418.117 33.7764 418.36 33.61 418.565 33.4004C418.775 33.1908 418.939 32.9469 419.058 32.6689C419.176 32.3864 419.235 32.0856 419.235 31.7666C419.235 31.443 419.176 31.1445 419.058 30.8711C418.939 30.5931 418.775 30.3538 418.565 30.1533C418.356 29.9482 418.11 29.7887 417.827 29.6748C417.549 29.5563 417.248 29.4971 416.925 29.4971C416.56 29.4971 416.223 29.5632 415.913 29.6953C415.608 29.8229 415.353 29.9961 415.147 30.2148L414.143 30.0576V24.6367H419.98V25.7715H415.271V28.8887Z" fill="url(#paint19_linear)"/>
<path opacity="0.4" d="M255.367 61.6367H258.73V62.8193H257.965L255.162 66.709L258.088 70.8242H258.73V72H255.367V70.8242H256.632L254.417 67.7412L252.188 70.8242H253.398V72H250.035V70.8242H250.712L253.665 66.7021L250.876 62.8193H250.035V61.6367H253.398V62.8193H252.4L254.417 65.6562L256.454 62.8193H255.367V61.6367Z" fill="url(#paint20_linear)"/>
<path opacity="0.3" d="M615.271 360.889C615.526 360.715 615.788 360.586 616.057 360.499C616.326 360.408 616.633 360.362 616.979 360.362C617.49 360.362 617.959 360.453 618.388 360.636C618.816 360.818 619.183 361.064 619.488 361.374C619.798 361.684 620.037 362.046 620.206 362.461C620.379 362.871 620.466 363.306 620.466 363.767C620.466 364.231 620.382 364.674 620.213 365.093C620.044 365.507 619.805 365.872 619.495 366.187C619.185 366.501 618.812 366.752 618.374 366.938C617.941 367.121 617.458 367.212 616.925 367.212C616.519 367.212 616.141 367.157 615.79 367.048C615.439 366.943 615.122 366.795 614.84 366.604C614.557 366.408 614.311 366.175 614.102 365.906C613.896 365.637 613.732 365.343 613.609 365.024L614.73 364.464C614.803 364.696 614.91 364.913 615.052 365.113C615.193 365.309 615.359 365.48 615.551 365.626C615.742 365.767 615.954 365.879 616.187 365.961C616.419 366.038 616.665 366.077 616.925 366.077C617.253 366.077 617.556 366.018 617.834 365.899C618.117 365.776 618.36 365.61 618.565 365.4C618.775 365.191 618.939 364.947 619.058 364.669C619.176 364.386 619.235 364.086 619.235 363.767C619.235 363.443 619.176 363.145 619.058 362.871C618.939 362.593 618.775 362.354 618.565 362.153C618.356 361.948 618.11 361.789 617.827 361.675C617.549 361.556 617.248 361.497 616.925 361.497C616.56 361.497 616.223 361.563 615.913 361.695C615.608 361.823 615.353 361.996 615.147 362.215L614.143 362.058V356.637H619.98V357.771H615.271V360.889Z" fill="url(#paint21_linear)"/>
<path opacity="0.2" d="M288.271 361.889C288.526 361.715 288.788 361.586 289.057 361.499C289.326 361.408 289.633 361.362 289.979 361.362C290.49 361.362 290.959 361.453 291.388 361.636C291.816 361.818 292.183 362.064 292.488 362.374C292.798 362.684 293.037 363.046 293.206 363.461C293.379 363.871 293.466 364.306 293.466 364.767C293.466 365.231 293.382 365.674 293.213 366.093C293.044 366.507 292.805 366.872 292.495 367.187C292.185 367.501 291.812 367.752 291.374 367.938C290.941 368.121 290.458 368.212 289.925 368.212C289.519 368.212 289.141 368.157 288.79 368.048C288.439 367.943 288.122 367.795 287.84 367.604C287.557 367.408 287.311 367.175 287.102 366.906C286.896 366.637 286.732 366.343 286.609 366.024L287.73 365.464C287.803 365.696 287.91 365.913 288.052 366.113C288.193 366.309 288.359 366.48 288.551 366.626C288.742 366.767 288.954 366.879 289.187 366.961C289.419 367.038 289.665 367.077 289.925 367.077C290.253 367.077 290.556 367.018 290.834 366.899C291.117 366.776 291.36 366.61 291.565 366.4C291.775 366.191 291.939 365.947 292.058 365.669C292.176 365.386 292.235 365.086 292.235 364.767C292.235 364.443 292.176 364.145 292.058 363.871C291.939 363.593 291.775 363.354 291.565 363.153C291.356 362.948 291.11 362.789 290.827 362.675C290.549 362.556 290.248 362.497 289.925 362.497C289.56 362.497 289.223 362.563 288.913 362.695C288.608 362.823 288.353 362.996 288.147 363.215L287.143 363.058V357.637H292.98V358.771H288.271V361.889Z" fill="url(#paint22_linear)"/>
<path d="M946.271 76.8887C946.526 76.7155 946.788 76.5856 947.057 76.499C947.326 76.4079 947.633 76.3623 947.979 76.3623C948.49 76.3623 948.959 76.4535 949.388 76.6357C949.816 76.818 950.183 77.0641 950.488 77.374C950.798 77.6839 951.037 78.0462 951.206 78.4609C951.379 78.8711 951.466 79.3063 951.466 79.7666C951.466 80.2314 951.382 80.6735 951.213 81.0928C951.044 81.5075 950.805 81.8721 950.495 82.1865C950.185 82.501 949.812 82.7516 949.374 82.9385C948.941 83.1208 948.458 83.2119 947.925 83.2119C947.519 83.2119 947.141 83.1572 946.79 83.0479C946.439 82.943 946.122 82.7949 945.84 82.6035C945.557 82.4076 945.311 82.1751 945.102 81.9062C944.896 81.6374 944.732 81.3434 944.609 81.0244L945.73 80.4639C945.803 80.6963 945.91 80.9128 946.052 81.1133C946.193 81.3092 946.359 81.4801 946.551 81.626C946.742 81.7673 946.954 81.8789 947.187 81.9609C947.419 82.0384 947.665 82.0771 947.925 82.0771C948.253 82.0771 948.556 82.0179 948.834 81.8994C949.117 81.7764 949.36 81.61 949.565 81.4004C949.775 81.1908 949.939 80.9469 950.058 80.6689C950.176 80.3864 950.235 80.0856 950.235 79.7666C950.235 79.443 950.176 79.1445 950.058 78.8711C949.939 78.5931 949.775 78.3538 949.565 78.1533C949.356 77.9482 949.11 77.7887 948.827 77.6748C948.549 77.5563 948.248 77.4971 947.925 77.4971C947.56 77.4971 947.223 77.5632 946.913 77.6953C946.608 77.8229 946.353 77.9961 946.147 78.2148L945.143 78.0576V72.6367H950.98V73.7715H946.271V76.8887Z" fill="url(#paint23_linear)"/>
<path d="M1098.37 246.637H1101.73V247.819H1100.96L1098.16 251.709L1101.09 255.824H1101.73V257H1098.37V255.824H1099.63L1097.42 252.741L1095.19 255.824H1096.4V257H1093.04V255.824H1093.71L1096.67 251.702L1093.88 247.819H1093.04V246.637H1096.4V247.819H1095.4L1097.42 250.656L1099.45 247.819H1098.37V246.637Z" fill="url(#paint24_linear)"/>
<path opacity="0.4" d="M246.932 385.123C246.193 385.123 245.576 384.986 245.079 384.713C244.582 384.439 244.184 384.063 243.883 383.585C243.587 383.106 243.375 382.546 243.247 381.903C243.119 381.261 243.056 380.57 243.056 379.832C243.056 379.044 243.142 378.308 243.315 377.624C243.489 376.936 243.721 376.384 244.013 375.97C244.304 375.555 244.671 375.202 245.113 374.91C245.56 374.618 246.171 374.473 246.945 374.473C247.679 374.473 248.29 374.589 248.777 374.821C249.265 375.054 249.666 375.411 249.98 375.895C250.299 376.373 250.523 376.952 250.65 377.631C250.778 378.31 250.842 379.03 250.842 379.791C250.842 380.534 250.778 381.229 250.65 381.876C250.523 382.523 250.306 383.088 250.001 383.571C249.7 384.05 249.299 384.428 248.798 384.706C248.297 384.984 247.674 385.123 246.932 385.123ZM246.932 383.906C247.465 383.906 247.893 383.799 248.217 383.585C248.545 383.366 248.791 383.07 248.955 382.696C249.124 382.323 249.249 381.887 249.331 381.391C249.413 380.889 249.454 380.356 249.454 379.791C249.454 379.249 249.422 378.729 249.358 378.232C249.295 377.731 249.172 377.289 248.989 376.906C248.807 376.523 248.552 376.218 248.224 375.99C247.896 375.762 247.469 375.648 246.945 375.648C246.403 375.648 245.975 375.762 245.66 375.99C245.346 376.218 245.111 376.494 244.956 376.817C244.801 377.136 244.678 377.576 244.587 378.137C244.5 378.697 244.457 379.249 244.457 379.791C244.457 380.356 244.484 380.889 244.539 381.391C244.598 381.887 244.715 382.323 244.888 382.696C245.065 383.07 245.316 383.366 245.64 383.585C245.968 383.799 246.398 383.906 246.932 383.906Z" fill="url(#paint25_linear)"/>
<path opacity="0.2" d="M967.932 187.123C967.193 187.123 966.576 186.986 966.079 186.713C965.582 186.439 965.184 186.063 964.883 185.585C964.587 185.106 964.375 184.546 964.247 183.903C964.119 183.261 964.056 182.57 964.056 181.832C964.056 181.044 964.142 180.308 964.315 179.624C964.489 178.936 964.721 178.384 965.013 177.97C965.304 177.555 965.671 177.202 966.113 176.91C966.56 176.618 967.171 176.473 967.945 176.473C968.679 176.473 969.29 176.589 969.777 176.821C970.265 177.054 970.666 177.411 970.98 177.895C971.299 178.373 971.523 178.952 971.65 179.631C971.778 180.31 971.842 181.03 971.842 181.791C971.842 182.534 971.778 183.229 971.65 183.876C971.523 184.523 971.306 185.088 971.001 185.571C970.7 186.05 970.299 186.428 969.798 186.706C969.297 186.984 968.674 187.123 967.932 187.123ZM967.932 185.906C968.465 185.906 968.893 185.799 969.217 185.585C969.545 185.366 969.791 185.07 969.955 184.696C970.124 184.323 970.249 183.887 970.331 183.391C970.413 182.889 970.454 182.356 970.454 181.791C970.454 181.249 970.422 180.729 970.358 180.232C970.295 179.731 970.172 179.289 969.989 178.906C969.807 178.523 969.552 178.218 969.224 177.99C968.896 177.762 968.469 177.648 967.945 177.648C967.403 177.648 966.975 177.762 966.66 177.99C966.346 178.218 966.111 178.494 965.956 178.817C965.801 179.136 965.678 179.576 965.587 180.137C965.5 180.697 965.457 181.249 965.457 181.791C965.457 182.356 965.484 182.889 965.539 183.391C965.598 183.887 965.715 184.323 965.888 184.696C966.065 185.07 966.316 185.366 966.64 185.585C966.968 185.799 967.398 185.906 967.932 185.906Z" fill="url(#paint26_linear)"/>
<path opacity="0.4" d="M1033.93 174.123C1033.19 174.123 1032.58 173.986 1032.08 173.713C1031.58 173.439 1031.18 173.063 1030.88 172.585C1030.59 172.106 1030.37 171.546 1030.25 170.903C1030.12 170.261 1030.06 169.57 1030.06 168.832C1030.06 168.044 1030.14 167.308 1030.32 166.624C1030.49 165.936 1030.72 165.384 1031.01 164.97C1031.3 164.555 1031.67 164.202 1032.11 163.91C1032.56 163.618 1033.17 163.473 1033.95 163.473C1034.68 163.473 1035.29 163.589 1035.78 163.821C1036.26 164.054 1036.67 164.411 1036.98 164.895C1037.3 165.373 1037.52 165.952 1037.65 166.631C1037.78 167.31 1037.84 168.03 1037.84 168.791C1037.84 169.534 1037.78 170.229 1037.65 170.876C1037.52 171.523 1037.31 172.088 1037 172.571C1036.7 173.05 1036.3 173.428 1035.8 173.706C1035.3 173.984 1034.67 174.123 1033.93 174.123ZM1033.93 172.906C1034.46 172.906 1034.89 172.799 1035.22 172.585C1035.54 172.366 1035.79 172.07 1035.96 171.696C1036.12 171.323 1036.25 170.887 1036.33 170.391C1036.41 169.889 1036.45 169.356 1036.45 168.791C1036.45 168.249 1036.42 167.729 1036.36 167.232C1036.29 166.731 1036.17 166.289 1035.99 165.906C1035.81 165.523 1035.55 165.218 1035.22 164.99C1034.9 164.762 1034.47 164.648 1033.95 164.648C1033.4 164.648 1032.97 164.762 1032.66 164.99C1032.35 165.218 1032.11 165.494 1031.96 165.817C1031.8 166.136 1031.68 166.576 1031.59 167.137C1031.5 167.697 1031.46 168.249 1031.46 168.791C1031.46 169.356 1031.48 169.889 1031.54 170.391C1031.6 170.887 1031.71 171.323 1031.89 171.696C1032.07 172.07 1032.32 172.366 1032.64 172.585C1032.97 172.799 1033.4 172.906 1033.93 172.906Z" fill="url(#paint27_linear)"/>
<path opacity="0.2" d="M879.932 118.123C879.193 118.123 878.576 117.986 878.079 117.713C877.582 117.439 877.184 117.063 876.883 116.585C876.587 116.106 876.375 115.546 876.247 114.903C876.119 114.261 876.056 113.57 876.056 112.832C876.056 112.044 876.142 111.308 876.315 110.624C876.489 109.936 876.721 109.384 877.013 108.97C877.304 108.555 877.671 108.202 878.113 107.91C878.56 107.618 879.171 107.473 879.945 107.473C880.679 107.473 881.29 107.589 881.777 107.821C882.265 108.054 882.666 108.411 882.98 108.895C883.299 109.373 883.523 109.952 883.65 110.631C883.778 111.31 883.842 112.03 883.842 112.791C883.842 113.534 883.778 114.229 883.65 114.876C883.523 115.523 883.306 116.088 883.001 116.571C882.7 117.05 882.299 117.428 881.798 117.706C881.297 117.984 880.674 118.123 879.932 118.123ZM879.932 116.906C880.465 116.906 880.893 116.799 881.217 116.585C881.545 116.366 881.791 116.07 881.955 115.696C882.124 115.323 882.249 114.887 882.331 114.391C882.413 113.889 882.454 113.356 882.454 112.791C882.454 112.249 882.422 111.729 882.358 111.232C882.295 110.731 882.172 110.289 881.989 109.906C881.807 109.523 881.552 109.218 881.224 108.99C880.896 108.762 880.469 108.648 879.945 108.648C879.403 108.648 878.975 108.762 878.66 108.99C878.346 109.218 878.111 109.494 877.956 109.817C877.801 110.136 877.678 110.576 877.587 111.137C877.5 111.697 877.457 112.249 877.457 112.791C877.457 113.356 877.484 113.889 877.539 114.391C877.598 114.887 877.715 115.323 877.888 115.696C878.065 116.07 878.316 116.366 878.64 116.585C878.968 116.799 879.398 116.906 879.932 116.906Z" fill="url(#paint28_linear)"/>
<path opacity="0.2" d="M797.932 83.123C797.193 83.123 796.576 82.9863 796.079 82.7129C795.582 82.4395 795.184 82.0635 794.883 81.585C794.587 81.1064 794.375 80.5459 794.247 79.9033C794.119 79.2607 794.056 78.5703 794.056 77.832C794.056 77.0436 794.142 76.3076 794.315 75.624C794.489 74.9359 794.721 74.3844 795.013 73.9697C795.304 73.555 795.671 73.2018 796.113 72.9102C796.56 72.6185 797.171 72.4727 797.945 72.4727C798.679 72.4727 799.29 72.5889 799.777 72.8213C800.265 73.0537 800.666 73.4115 800.98 73.8945C801.299 74.373 801.523 74.9518 801.65 75.6309C801.778 76.3099 801.842 77.0299 801.842 77.791C801.842 78.5339 801.778 79.2288 801.65 79.876C801.523 80.5231 801.306 81.0882 801.001 81.5713C800.7 82.0498 800.299 82.4281 799.798 82.7061C799.297 82.984 798.674 83.123 797.932 83.123ZM797.932 81.9062C798.465 81.9062 798.893 81.7992 799.217 81.585C799.545 81.3662 799.791 81.07 799.955 80.6963C800.124 80.3226 800.249 79.8874 800.331 79.3906C800.413 78.8893 800.454 78.3561 800.454 77.791C800.454 77.2487 800.422 76.7292 800.358 76.2324C800.295 75.7311 800.172 75.2891 799.989 74.9062C799.807 74.5234 799.552 74.2181 799.224 73.9902C798.896 73.7624 798.469 73.6484 797.945 73.6484C797.403 73.6484 796.975 73.7624 796.66 73.9902C796.346 74.2181 796.111 74.4938 795.956 74.8174C795.801 75.1364 795.678 75.5762 795.587 76.1367C795.5 76.6973 795.457 77.2487 795.457 77.791C795.457 78.3561 795.484 78.8893 795.539 79.3906C795.598 79.8874 795.715 80.3226 795.888 80.6963C796.065 81.07 796.316 81.3662 796.64 81.585C796.968 81.7992 797.398 81.9062 797.932 81.9062Z" fill="url(#paint29_linear)"/>
<path opacity="0.3" d="M915.932 51.123C915.193 51.123 914.576 50.9863 914.079 50.7129C913.582 50.4395 913.184 50.0635 912.883 49.585C912.587 49.1064 912.375 48.5459 912.247 47.9033C912.119 47.2607 912.056 46.5703 912.056 45.832C912.056 45.0436 912.142 44.3076 912.315 43.624C912.489 42.9359 912.721 42.3844 913.013 41.9697C913.304 41.555 913.671 41.2018 914.113 40.9102C914.56 40.6185 915.171 40.4727 915.945 40.4727C916.679 40.4727 917.29 40.5889 917.777 40.8213C918.265 41.0537 918.666 41.4115 918.98 41.8945C919.299 42.373 919.523 42.9518 919.65 43.6309C919.778 44.3099 919.842 45.0299 919.842 45.791C919.842 46.5339 919.778 47.2288 919.65 47.876C919.523 48.5231 919.306 49.0882 919.001 49.5713C918.7 50.0498 918.299 50.4281 917.798 50.7061C917.297 50.984 916.674 51.123 915.932 51.123ZM915.932 49.9062C916.465 49.9062 916.893 49.7992 917.217 49.585C917.545 49.3662 917.791 49.07 917.955 48.6963C918.124 48.3226 918.249 47.8874 918.331 47.3906C918.413 46.8893 918.454 46.3561 918.454 45.791C918.454 45.2487 918.422 44.7292 918.358 44.2324C918.295 43.7311 918.172 43.2891 917.989 42.9062C917.807 42.5234 917.552 42.2181 917.224 41.9902C916.896 41.7624 916.469 41.6484 915.945 41.6484C915.403 41.6484 914.975 41.7624 914.66 41.9902C914.346 42.2181 914.111 42.4938 913.956 42.8174C913.801 43.1364 913.678 43.5762 913.587 44.1367C913.5 44.6973 913.457 45.2487 913.457 45.791C913.457 46.3561 913.484 46.8893 913.539 47.3906C913.598 47.8874 913.715 48.3226 913.888 48.6963C914.065 49.07 914.316 49.3662 914.64 49.585C914.968 49.7992 915.398 49.9062 915.932 49.9062Z" fill="url(#paint30_linear)"/>
<path opacity="0.3" d="M933.932 66.123C933.193 66.123 932.576 65.9863 932.079 65.7129C931.582 65.4395 931.184 65.0635 930.883 64.585C930.587 64.1064 930.375 63.5459 930.247 62.9033C930.119 62.2607 930.056 61.5703 930.056 60.832C930.056 60.0436 930.142 59.3076 930.315 58.624C930.489 57.9359 930.721 57.3844 931.013 56.9697C931.304 56.555 931.671 56.2018 932.113 55.9102C932.56 55.6185 933.171 55.4727 933.945 55.4727C934.679 55.4727 935.29 55.5889 935.777 55.8213C936.265 56.0537 936.666 56.4115 936.98 56.8945C937.299 57.373 937.523 57.9518 937.65 58.6309C937.778 59.3099 937.842 60.0299 937.842 60.791C937.842 61.5339 937.778 62.2288 937.65 62.876C937.523 63.5231 937.306 64.0882 937.001 64.5713C936.7 65.0498 936.299 65.4281 935.798 65.7061C935.297 65.984 934.674 66.123 933.932 66.123ZM933.932 64.9062C934.465 64.9062 934.893 64.7992 935.217 64.585C935.545 64.3662 935.791 64.07 935.955 63.6963C936.124 63.3226 936.249 62.8874 936.331 62.3906C936.413 61.8893 936.454 61.3561 936.454 60.791C936.454 60.2487 936.422 59.7292 936.358 59.2324C936.295 58.7311 936.172 58.2891 935.989 57.9062C935.807 57.5234 935.552 57.2181 935.224 56.9902C934.896 56.7624 934.469 56.6484 933.945 56.6484C933.403 56.6484 932.975 56.7624 932.66 56.9902C932.346 57.2181 932.111 57.4938 931.956 57.8174C931.801 58.1364 931.678 58.5762 931.587 59.1367C931.5 59.6973 931.457 60.2487 931.457 60.791C931.457 61.3561 931.484 61.8893 931.539 62.3906C931.598 62.8874 931.715 63.3226 931.888 63.6963C932.065 64.07 932.316 64.3662 932.64 64.585C932.968 64.7992 933.398 64.9062 933.932 64.9062Z" fill="url(#paint31_linear)"/>
<path d="M892.932 367.123C892.193 367.123 891.576 366.986 891.079 366.713C890.582 366.439 890.184 366.063 889.883 365.585C889.587 365.106 889.375 364.546 889.247 363.903C889.119 363.261 889.056 362.57 889.056 361.832C889.056 361.044 889.142 360.308 889.315 359.624C889.489 358.936 889.721 358.384 890.013 357.97C890.304 357.555 890.671 357.202 891.113 356.91C891.56 356.618 892.171 356.473 892.945 356.473C893.679 356.473 894.29 356.589 894.777 356.821C895.265 357.054 895.666 357.411 895.98 357.895C896.299 358.373 896.523 358.952 896.65 359.631C896.778 360.31 896.842 361.03 896.842 361.791C896.842 362.534 896.778 363.229 896.65 363.876C896.523 364.523 896.306 365.088 896.001 365.571C895.7 366.05 895.299 366.428 894.798 366.706C894.297 366.984 893.674 367.123 892.932 367.123ZM892.932 365.906C893.465 365.906 893.893 365.799 894.217 365.585C894.545 365.366 894.791 365.07 894.955 364.696C895.124 364.323 895.249 363.887 895.331 363.391C895.413 362.889 895.454 362.356 895.454 361.791C895.454 361.249 895.422 360.729 895.358 360.232C895.295 359.731 895.172 359.289 894.989 358.906C894.807 358.523 894.552 358.218 894.224 357.99C893.896 357.762 893.469 357.648 892.945 357.648C892.403 357.648 891.975 357.762 891.66 357.99C891.346 358.218 891.111 358.494 890.956 358.817C890.801 359.136 890.678 359.576 890.587 360.137C890.5 360.697 890.457 361.249 890.457 361.791C890.457 362.356 890.484 362.889 890.539 363.391C890.598 363.887 890.715 364.323 890.888 364.696C891.065 365.07 891.316 365.366 891.64 365.585C891.968 365.799 892.398 365.906 892.932 365.906Z" fill="url(#paint32_linear)"/>
<path opacity="0.3" d="M523.725 72.123C522.986 72.123 522.369 71.9863 521.872 71.7129C521.375 71.4395 520.977 71.0635 520.676 70.585C520.38 70.1064 520.168 69.5459 520.04 68.9033C519.912 68.2607 519.849 67.5703 519.849 66.832C519.849 66.0436 519.935 65.3076 520.108 64.624C520.282 63.9359 520.514 63.3844 520.806 62.9697C521.097 62.555 521.464 62.2018 521.906 61.9102C522.353 61.6185 522.964 61.4727 523.738 61.4727C524.472 61.4727 525.083 61.5889 525.57 61.8213C526.058 62.0537 526.459 62.4115 526.773 62.8945C527.092 63.373 527.316 63.9518 527.443 64.6309C527.571 65.3099 527.635 66.0299 527.635 66.791C527.635 67.5339 527.571 68.2288 527.443 68.876C527.316 69.5231 527.099 70.0882 526.794 70.5713C526.493 71.0498 526.092 71.4281 525.591 71.7061C525.09 71.984 524.467 72.123 523.725 72.123ZM523.725 70.9062C524.258 70.9062 524.686 70.7992 525.01 70.585C525.338 70.3662 525.584 70.07 525.748 69.6963C525.917 69.3226 526.042 68.8874 526.124 68.3906C526.206 67.8893 526.247 67.3561 526.247 66.791C526.247 66.2487 526.215 65.7292 526.151 65.2324C526.088 64.7311 525.965 64.2891 525.782 63.9062C525.6 63.5234 525.345 63.2181 525.017 62.9902C524.688 62.7624 524.262 62.6484 523.738 62.6484C523.196 62.6484 522.768 62.7624 522.453 62.9902C522.139 63.2181 521.904 63.4938 521.749 63.8174C521.594 64.1364 521.471 64.5762 521.38 65.1367C521.293 65.6973 521.25 66.2487 521.25 66.791C521.25 67.3561 521.277 67.8893 521.332 68.3906C521.391 68.8874 521.507 69.3226 521.681 69.6963C521.858 70.07 522.109 70.3662 522.433 70.585C522.761 70.7992 523.191 70.9062 523.725 70.9062Z" fill="url(#paint33_linear)"/>
<path opacity="0.5" d="M253.932 114.123C253.193 114.123 252.576 113.986 252.079 113.713C251.582 113.439 251.184 113.063 250.883 112.585C250.587 112.106 250.375 111.546 250.247 110.903C250.119 110.261 250.056 109.57 250.056 108.832C250.056 108.044 250.142 107.308 250.315 106.624C250.489 105.936 250.721 105.384 251.013 104.97C251.304 104.555 251.671 104.202 252.113 103.91C252.56 103.618 253.171 103.473 253.945 103.473C254.679 103.473 255.29 103.589 255.777 103.821C256.265 104.054 256.666 104.411 256.98 104.895C257.299 105.373 257.523 105.952 257.65 106.631C257.778 107.31 257.842 108.03 257.842 108.791C257.842 109.534 257.778 110.229 257.65 110.876C257.523 111.523 257.306 112.088 257.001 112.571C256.7 113.05 256.299 113.428 255.798 113.706C255.297 113.984 254.674 114.123 253.932 114.123ZM253.932 112.906C254.465 112.906 254.893 112.799 255.217 112.585C255.545 112.366 255.791 112.07 255.955 111.696C256.124 111.323 256.249 110.887 256.331 110.391C256.413 109.889 256.454 109.356 256.454 108.791C256.454 108.249 256.422 107.729 256.358 107.232C256.295 106.731 256.172 106.289 255.989 105.906C255.807 105.523 255.552 105.218 255.224 104.99C254.896 104.762 254.469 104.648 253.945 104.648C253.403 104.648 252.975 104.762 252.66 104.99C252.346 105.218 252.111 105.494 251.956 105.817C251.801 106.136 251.678 106.576 251.587 107.137C251.5 107.697 251.457 108.249 251.457 108.791C251.457 109.356 251.484 109.889 251.539 110.391C251.598 110.887 251.715 111.323 251.888 111.696C252.065 112.07 252.316 112.366 252.64 112.585C252.968 112.799 253.398 112.906 253.932 112.906Z" fill="url(#paint34_linear)"/>
<path opacity="0.3" d="M184.932 333.123C184.193 333.123 183.576 332.986 183.079 332.713C182.582 332.439 182.184 332.063 181.883 331.585C181.587 331.106 181.375 330.546 181.247 329.903C181.119 329.261 181.056 328.57 181.056 327.832C181.056 327.044 181.142 326.308 181.315 325.624C181.489 324.936 181.721 324.384 182.013 323.97C182.304 323.555 182.671 323.202 183.113 322.91C183.56 322.618 184.171 322.473 184.945 322.473C185.679 322.473 186.29 322.589 186.777 322.821C187.265 323.054 187.666 323.411 187.98 323.895C188.299 324.373 188.523 324.952 188.65 325.631C188.778 326.31 188.842 327.03 188.842 327.791C188.842 328.534 188.778 329.229 188.65 329.876C188.523 330.523 188.306 331.088 188.001 331.571C187.7 332.05 187.299 332.428 186.798 332.706C186.297 332.984 185.674 333.123 184.932 333.123ZM184.932 331.906C185.465 331.906 185.893 331.799 186.217 331.585C186.545 331.366 186.791 331.07 186.955 330.696C187.124 330.323 187.249 329.887 187.331 329.391C187.413 328.889 187.454 328.356 187.454 327.791C187.454 327.249 187.422 326.729 187.358 326.232C187.295 325.731 187.172 325.289 186.989 324.906C186.807 324.523 186.552 324.218 186.224 323.99C185.896 323.762 185.469 323.648 184.945 323.648C184.403 323.648 183.975 323.762 183.66 323.99C183.346 324.218 183.111 324.494 182.956 324.817C182.801 325.136 182.678 325.576 182.587 326.137C182.5 326.697 182.457 327.249 182.457 327.791C182.457 328.356 182.484 328.889 182.539 329.391C182.598 329.887 182.715 330.323 182.888 330.696C183.065 331.07 183.316 331.366 183.64 331.585C183.968 331.799 184.398 331.906 184.932 331.906Z" fill="url(#paint35_linear)"/>
<path opacity="0.5" d="M865.932 345.123C865.193 345.123 864.576 344.986 864.079 344.713C863.582 344.439 863.184 344.063 862.883 343.585C862.587 343.106 862.375 342.546 862.247 341.903C862.119 341.261 862.056 340.57 862.056 339.832C862.056 339.044 862.142 338.308 862.315 337.624C862.489 336.936 862.721 336.384 863.013 335.97C863.304 335.555 863.671 335.202 864.113 334.91C864.56 334.618 865.171 334.473 865.945 334.473C866.679 334.473 867.29 334.589 867.777 334.821C868.265 335.054 868.666 335.411 868.98 335.895C869.299 336.373 869.523 336.952 869.65 337.631C869.778 338.31 869.842 339.03 869.842 339.791C869.842 340.534 869.778 341.229 869.65 341.876C869.523 342.523 869.306 343.088 869.001 343.571C868.7 344.05 868.299 344.428 867.798 344.706C867.297 344.984 866.674 345.123 865.932 345.123ZM865.932 343.906C866.465 343.906 866.893 343.799 867.217 343.585C867.545 343.366 867.791 343.07 867.955 342.696C868.124 342.323 868.249 341.887 868.331 341.391C868.413 340.889 868.454 340.356 868.454 339.791C868.454 339.249 868.422 338.729 868.358 338.232C868.295 337.731 868.172 337.289 867.989 336.906C867.807 336.523 867.552 336.218 867.224 335.99C866.896 335.762 866.469 335.648 865.945 335.648C865.403 335.648 864.975 335.762 864.66 335.99C864.346 336.218 864.111 336.494 863.956 336.817C863.801 337.136 863.678 337.576 863.587 338.137C863.5 338.697 863.457 339.249 863.457 339.791C863.457 340.356 863.484 340.889 863.539 341.391C863.598 341.887 863.715 342.323 863.888 342.696C864.065 343.07 864.316 343.366 864.64 343.585C864.968 343.799 865.398 343.906 865.932 343.906Z" fill="url(#paint36_linear)"/>
<path opacity="0.4" d="M356.632 90.8242H357.493L356.673 88.4727H352.688L351.888 90.8242H352.954V92H349.591V90.8242H350.493L353.72 81.6367H355.736L358.956 90.8242H359.995V92H356.632V90.8242ZM353.077 87.3379H356.276L354.663 82.7031L353.077 87.3379Z" fill="url(#paint37_linear)"/>
<path opacity="0.2" d="M967.839 81.8242H968.7L967.88 79.4727H963.895L963.095 81.8242H964.161V83H960.798V81.8242H961.7L964.927 72.6367H966.943L970.163 81.8242H971.202V83H967.839V81.8242ZM964.284 78.3379H967.483L965.87 73.7031L964.284 78.3379Z" fill="url(#paint38_linear)"/>
<path opacity="0.3" d="M604.839 382.824H605.7L604.88 380.473H600.895L600.095 382.824H601.161V384H597.798V382.824H598.7L601.927 373.637H603.943L607.163 382.824H608.202V384H604.839V382.824ZM601.284 379.338H604.483L602.87 374.703L601.284 379.338Z" fill="url(#paint39_linear)"/>
<path opacity="0.2" d="M153.839 94.8242H154.7L153.88 92.4727H149.895L149.095 94.8242H150.161V96H146.798V94.8242H147.7L150.927 85.6367H152.943L156.163 94.8242H157.202V96H153.839V94.8242ZM150.284 91.3379H153.483L151.87 86.7031L150.284 91.3379Z" fill="url(#paint40_linear)"/>
<path opacity="0.2" d="M311.874 197.824H312.735L311.915 195.473H307.93L307.13 197.824H308.196V199H304.833V197.824H305.735L308.962 188.637H310.979L314.198 197.824H315.237V199H311.874V197.824ZM308.319 194.338H311.519L309.905 189.703L308.319 194.338Z" fill="url(#paint41_linear)"/>
<path opacity="0.2" d="M393.392 160.824H394.376V152.819H393.392V151.623L398.054 151.637C398.473 151.637 398.867 151.716 399.236 151.876C399.605 152.031 399.927 152.245 400.2 152.519C400.474 152.787 400.688 153.106 400.843 153.476C401.002 153.845 401.082 154.241 401.082 154.665C401.082 155.107 400.959 155.51 400.713 155.875C400.467 156.24 400.116 156.531 399.66 156.75C399.883 156.868 400.086 157.007 400.269 157.167C400.451 157.322 400.606 157.493 400.733 157.68C400.861 157.867 400.959 158.065 401.027 158.274C401.1 158.484 401.137 158.698 401.137 158.917C401.137 159.35 401.057 159.753 400.897 160.127C400.743 160.501 400.528 160.826 400.255 161.104C399.981 161.382 399.66 161.601 399.291 161.761C398.926 161.92 398.535 162 398.115 162H393.392V160.824ZM395.716 157.393V160.824H398.129C398.348 160.824 398.55 160.77 398.737 160.66C398.924 160.551 399.088 160.41 399.229 160.236C399.371 160.059 399.48 159.858 399.558 159.635C399.64 159.411 399.681 159.184 399.681 158.951C399.681 158.751 399.64 158.557 399.558 158.37C399.476 158.183 399.364 158.017 399.223 157.871C399.086 157.725 398.922 157.609 398.73 157.522C398.544 157.436 398.343 157.393 398.129 157.393H395.716ZM395.716 152.819V156.203H398.067C398.286 156.203 398.489 156.16 398.676 156.073C398.867 155.987 399.031 155.87 399.168 155.725C399.309 155.579 399.421 155.41 399.503 155.219C399.585 155.027 399.626 154.829 399.626 154.624C399.626 154.401 399.585 154.182 399.503 153.968C399.421 153.749 399.309 153.555 399.168 153.387C399.027 153.218 398.86 153.081 398.669 152.977C398.482 152.872 398.282 152.819 398.067 152.819H395.716Z" fill="url(#paint42_linear)"/>
<path opacity="0.5" d="M308.722 175.824H309.727V168.243L307.628 169.385V167.956L310.513 166.343H311.06V175.824H312.078V177H308.722V175.824Z" fill="url(#paint43_linear)"/>
<path opacity="0.5" d="M1049.36 171.824H1050.34V163.819H1049.36V162.623L1054.02 162.637C1054.44 162.637 1054.83 162.716 1055.2 162.876C1055.57 163.031 1055.89 163.245 1056.17 163.519C1056.44 163.787 1056.65 164.106 1056.81 164.476C1056.97 164.845 1057.05 165.241 1057.05 165.665C1057.05 166.107 1056.92 166.51 1056.68 166.875C1056.43 167.24 1056.08 167.531 1055.62 167.75C1055.85 167.868 1056.05 168.007 1056.23 168.167C1056.42 168.322 1056.57 168.493 1056.7 168.68C1056.83 168.867 1056.92 169.065 1056.99 169.274C1057.07 169.484 1057.1 169.698 1057.1 169.917C1057.1 170.35 1057.02 170.753 1056.86 171.127C1056.71 171.501 1056.49 171.826 1056.22 172.104C1055.95 172.382 1055.62 172.601 1055.26 172.761C1054.89 172.92 1054.5 173 1054.08 173H1049.36V171.824ZM1051.68 168.393V171.824H1054.09C1054.31 171.824 1054.52 171.77 1054.7 171.66C1054.89 171.551 1055.05 171.41 1055.19 171.236C1055.34 171.059 1055.44 170.858 1055.52 170.635C1055.6 170.411 1055.65 170.184 1055.65 169.951C1055.65 169.751 1055.6 169.557 1055.52 169.37C1055.44 169.183 1055.33 169.017 1055.19 168.871C1055.05 168.725 1054.89 168.609 1054.7 168.522C1054.51 168.436 1054.31 168.393 1054.09 168.393H1051.68ZM1051.68 163.819V167.203H1054.03C1054.25 167.203 1054.45 167.16 1054.64 167.073C1054.83 166.987 1055 166.87 1055.13 166.725C1055.27 166.579 1055.39 166.41 1055.47 166.219C1055.55 166.027 1055.59 165.829 1055.59 165.624C1055.59 165.401 1055.55 165.182 1055.47 164.968C1055.39 164.749 1055.27 164.555 1055.13 164.387C1054.99 164.218 1054.83 164.081 1054.63 163.977C1054.45 163.872 1054.25 163.819 1054.03 163.819H1051.68Z" fill="url(#paint44_linear)"/>
<path opacity="0.2" d="M669.356 314.824H670.341V306.819H669.356V305.623L674.019 305.637C674.438 305.637 674.832 305.716 675.201 305.876C675.57 306.031 675.892 306.245 676.165 306.519C676.438 306.787 676.653 307.106 676.808 307.476C676.967 307.845 677.047 308.241 677.047 308.665C677.047 309.107 676.924 309.51 676.678 309.875C676.432 310.24 676.081 310.531 675.625 310.75C675.848 310.868 676.051 311.007 676.233 311.167C676.416 311.322 676.571 311.493 676.698 311.68C676.826 311.867 676.924 312.065 676.992 312.274C677.065 312.484 677.102 312.698 677.102 312.917C677.102 313.35 677.022 313.753 676.862 314.127C676.707 314.501 676.493 314.826 676.22 315.104C675.946 315.382 675.625 315.601 675.256 315.761C674.891 315.92 674.499 316 674.08 316H669.356V314.824ZM671.681 311.393V314.824H674.094C674.312 314.824 674.515 314.77 674.702 314.66C674.889 314.551 675.053 314.41 675.194 314.236C675.336 314.059 675.445 313.858 675.522 313.635C675.604 313.411 675.646 313.184 675.646 312.951C675.646 312.751 675.604 312.557 675.522 312.37C675.44 312.183 675.329 312.017 675.188 311.871C675.051 311.725 674.887 311.609 674.695 311.522C674.508 311.436 674.308 311.393 674.094 311.393H671.681ZM671.681 306.819V310.203H674.032C674.251 310.203 674.454 310.16 674.641 310.073C674.832 309.987 674.996 309.87 675.133 309.725C675.274 309.579 675.386 309.41 675.468 309.219C675.55 309.027 675.591 308.829 675.591 308.624C675.591 308.401 675.55 308.182 675.468 307.968C675.386 307.749 675.274 307.555 675.133 307.387C674.992 307.218 674.825 307.081 674.634 306.977C674.447 306.872 674.246 306.819 674.032 306.819H671.681Z" fill="url(#paint45_linear)"/>
<path opacity="0.5" d="M601.599 367L603.984 363.09C603.757 363.181 603.549 363.243 603.362 363.274C603.175 363.306 602.975 363.322 602.761 363.322C602.36 363.322 601.943 363.245 601.51 363.09C601.081 362.93 600.715 362.709 600.409 362.427C600.108 362.14 599.858 361.789 599.657 361.374C599.461 360.955 599.363 360.531 599.363 360.103C599.363 359.524 599.461 359.009 599.657 358.558C599.853 358.106 600.118 357.726 600.45 357.416C600.783 357.106 601.168 356.871 601.605 356.712C602.048 356.548 602.515 356.466 603.007 356.466C603.499 356.466 603.957 356.548 604.381 356.712C604.809 356.876 605.19 357.113 605.522 357.423C605.855 357.728 606.115 358.095 606.302 358.523C606.493 358.947 606.589 359.419 606.589 359.938C606.589 360.34 606.511 360.736 606.356 361.128C606.206 361.52 606.017 361.93 605.789 362.358L603.191 367H601.599ZM602.973 357.655C602.663 357.655 602.367 357.71 602.084 357.819C601.801 357.929 601.553 358.084 601.339 358.284C601.125 358.485 600.954 358.724 600.826 359.002C600.699 359.28 600.635 359.588 600.635 359.925C600.635 360.299 600.703 360.629 600.84 360.916C600.977 361.199 601.159 361.436 601.387 361.627C601.619 361.818 601.877 361.962 602.159 362.058C602.446 362.153 602.733 362.201 603.021 362.201C603.44 362.201 603.763 362.151 603.991 362.051C604.224 361.946 604.442 361.802 604.647 361.62C604.853 361.433 605.014 361.199 605.133 360.916C605.251 360.629 605.311 360.299 605.311 359.925C605.311 359.569 605.251 359.25 605.133 358.968C605.014 358.685 604.85 358.448 604.641 358.257C604.431 358.061 604.183 357.913 603.896 357.812C603.613 357.708 603.305 357.655 602.973 357.655Z" fill="url(#paint46_linear)"/>
<path opacity="0.6" d="M861.356 364.824H862.341V356.819H861.356V355.623L866.019 355.637C866.438 355.637 866.832 355.716 867.201 355.876C867.57 356.031 867.892 356.245 868.165 356.519C868.438 356.787 868.653 357.106 868.808 357.476C868.967 357.845 869.047 358.241 869.047 358.665C869.047 359.107 868.924 359.51 868.678 359.875C868.432 360.24 868.081 360.531 867.625 360.75C867.848 360.868 868.051 361.007 868.233 361.167C868.416 361.322 868.571 361.493 868.698 361.68C868.826 361.867 868.924 362.065 868.992 362.274C869.065 362.484 869.102 362.698 869.102 362.917C869.102 363.35 869.022 363.753 868.862 364.127C868.707 364.501 868.493 364.826 868.22 365.104C867.946 365.382 867.625 365.601 867.256 365.761C866.891 365.92 866.499 366 866.08 366H861.356V364.824ZM863.681 361.393V364.824H866.094C866.312 364.824 866.515 364.77 866.702 364.66C866.889 364.551 867.053 364.41 867.194 364.236C867.336 364.059 867.445 363.858 867.522 363.635C867.604 363.411 867.646 363.184 867.646 362.951C867.646 362.751 867.604 362.557 867.522 362.37C867.44 362.183 867.329 362.017 867.188 361.871C867.051 361.725 866.887 361.609 866.695 361.522C866.508 361.436 866.308 361.393 866.094 361.393H863.681ZM863.681 356.819V360.203H866.032C866.251 360.203 866.454 360.16 866.641 360.073C866.832 359.987 866.996 359.87 867.133 359.725C867.274 359.579 867.386 359.41 867.468 359.219C867.55 359.027 867.591 358.829 867.591 358.624C867.591 358.401 867.55 358.182 867.468 357.968C867.386 357.749 867.274 357.555 867.133 357.387C866.992 357.218 866.825 357.081 866.634 356.977C866.447 356.872 866.246 356.819 866.032 356.819H863.681Z" fill="url(#paint47_linear)"/>
<path opacity="0.6" d="M877.356 346.824H878.341V338.819H877.356V337.623L882.019 337.637C882.438 337.637 882.832 337.716 883.201 337.876C883.57 338.031 883.892 338.245 884.165 338.519C884.438 338.787 884.653 339.106 884.808 339.476C884.967 339.845 885.047 340.241 885.047 340.665C885.047 341.107 884.924 341.51 884.678 341.875C884.432 342.24 884.081 342.531 883.625 342.75C883.848 342.868 884.051 343.007 884.233 343.167C884.416 343.322 884.571 343.493 884.698 343.68C884.826 343.867 884.924 344.065 884.992 344.274C885.065 344.484 885.102 344.698 885.102 344.917C885.102 345.35 885.022 345.753 884.862 346.127C884.707 346.501 884.493 346.826 884.22 347.104C883.946 347.382 883.625 347.601 883.256 347.761C882.891 347.92 882.499 348 882.08 348H877.356V346.824ZM879.681 343.393V346.824H882.094C882.312 346.824 882.515 346.77 882.702 346.66C882.889 346.551 883.053 346.41 883.194 346.236C883.336 346.059 883.445 345.858 883.522 345.635C883.604 345.411 883.646 345.184 883.646 344.951C883.646 344.751 883.604 344.557 883.522 344.37C883.44 344.183 883.329 344.017 883.188 343.871C883.051 343.725 882.887 343.609 882.695 343.522C882.508 343.436 882.308 343.393 882.094 343.393H879.681ZM879.681 338.819V342.203H882.032C882.251 342.203 882.454 342.16 882.641 342.073C882.832 341.987 882.996 341.87 883.133 341.725C883.274 341.579 883.386 341.41 883.468 341.219C883.55 341.027 883.591 340.829 883.591 340.624C883.591 340.401 883.55 340.182 883.468 339.968C883.386 339.749 883.274 339.555 883.133 339.387C882.992 339.218 882.825 339.081 882.634 338.977C882.447 338.872 882.246 338.819 882.032 338.819H879.681Z" fill="url(#paint48_linear)"/>
<path opacity="0.3" d="M1033.72 194.824H1034.73V187.243L1032.63 188.385V186.956L1035.51 185.343H1036.06V194.824H1037.08V196H1033.72V194.824Z" fill="url(#paint49_linear)"/>
<path opacity="0.2" d="M1028.36 270.824H1029.34V262.819H1028.36V261.623L1033.02 261.637C1033.44 261.637 1033.83 261.716 1034.2 261.876C1034.57 262.031 1034.89 262.245 1035.17 262.519C1035.44 262.787 1035.65 263.106 1035.81 263.476C1035.97 263.845 1036.05 264.241 1036.05 264.665C1036.05 265.107 1035.92 265.51 1035.68 265.875C1035.43 266.24 1035.08 266.531 1034.62 266.75C1034.85 266.868 1035.05 267.007 1035.23 267.167C1035.42 267.322 1035.57 267.493 1035.7 267.68C1035.83 267.867 1035.92 268.065 1035.99 268.274C1036.07 268.484 1036.1 268.698 1036.1 268.917C1036.1 269.35 1036.02 269.753 1035.86 270.127C1035.71 270.501 1035.49 270.826 1035.22 271.104C1034.95 271.382 1034.62 271.601 1034.26 271.761C1033.89 271.92 1033.5 272 1033.08 272H1028.36V270.824ZM1030.68 267.393V270.824H1033.09C1033.31 270.824 1033.52 270.77 1033.7 270.66C1033.89 270.551 1034.05 270.41 1034.19 270.236C1034.34 270.059 1034.44 269.858 1034.52 269.635C1034.6 269.411 1034.65 269.184 1034.65 268.951C1034.65 268.751 1034.6 268.557 1034.52 268.37C1034.44 268.183 1034.33 268.017 1034.19 267.871C1034.05 267.725 1033.89 267.609 1033.7 267.522C1033.51 267.436 1033.31 267.393 1033.09 267.393H1030.68ZM1030.68 262.819V266.203H1033.03C1033.25 266.203 1033.45 266.16 1033.64 266.073C1033.83 265.987 1034 265.87 1034.13 265.725C1034.27 265.579 1034.39 265.41 1034.47 265.219C1034.55 265.027 1034.59 264.829 1034.59 264.624C1034.59 264.401 1034.55 264.182 1034.47 263.968C1034.39 263.749 1034.27 263.555 1034.13 263.387C1033.99 263.218 1033.83 263.081 1033.63 262.977C1033.45 262.872 1033.25 262.819 1033.03 262.819H1030.68Z" fill="url(#paint50_linear)"/>
<path opacity="0.2" d="M774.356 290.824H775.341V282.819H774.356V281.623L779.019 281.637C779.438 281.637 779.832 281.716 780.201 281.876C780.57 282.031 780.892 282.245 781.165 282.519C781.438 282.787 781.653 283.106 781.808 283.476C781.967 283.845 782.047 284.241 782.047 284.665C782.047 285.107 781.924 285.51 781.678 285.875C781.432 286.24 781.081 286.531 780.625 286.75C780.848 286.868 781.051 287.007 781.233 287.167C781.416 287.322 781.571 287.493 781.698 287.68C781.826 287.867 781.924 288.065 781.992 288.274C782.065 288.484 782.102 288.698 782.102 288.917C782.102 289.35 782.022 289.753 781.862 290.127C781.707 290.501 781.493 290.826 781.22 291.104C780.946 291.382 780.625 291.601 780.256 291.761C779.891 291.92 779.499 292 779.08 292H774.356V290.824ZM776.681 287.393V290.824H779.094C779.312 290.824 779.515 290.77 779.702 290.66C779.889 290.551 780.053 290.41 780.194 290.236C780.336 290.059 780.445 289.858 780.522 289.635C780.604 289.411 780.646 289.184 780.646 288.951C780.646 288.751 780.604 288.557 780.522 288.37C780.44 288.183 780.329 288.017 780.188 287.871C780.051 287.725 779.887 287.609 779.695 287.522C779.508 287.436 779.308 287.393 779.094 287.393H776.681ZM776.681 282.819V286.203H779.032C779.251 286.203 779.454 286.16 779.641 286.073C779.832 285.987 779.996 285.87 780.133 285.725C780.274 285.579 780.386 285.41 780.468 285.219C780.55 285.027 780.591 284.829 780.591 284.624C780.591 284.401 780.55 284.182 780.468 283.968C780.386 283.749 780.274 283.555 780.133 283.387C779.992 283.218 779.825 283.081 779.634 282.977C779.447 282.872 779.246 282.819 779.032 282.819H776.681Z" fill="url(#paint51_linear)"/>
<path d="M943.356 343.824H944.341V335.819H943.356V334.623L948.019 334.637C948.438 334.637 948.832 334.716 949.201 334.876C949.57 335.031 949.892 335.245 950.165 335.519C950.438 335.787 950.653 336.106 950.808 336.476C950.967 336.845 951.047 337.241 951.047 337.665C951.047 338.107 950.924 338.51 950.678 338.875C950.432 339.24 950.081 339.531 949.625 339.75C949.848 339.868 950.051 340.007 950.233 340.167C950.416 340.322 950.571 340.493 950.698 340.68C950.826 340.867 950.924 341.065 950.992 341.274C951.065 341.484 951.102 341.698 951.102 341.917C951.102 342.35 951.022 342.753 950.862 343.127C950.707 343.501 950.493 343.826 950.22 344.104C949.946 344.382 949.625 344.601 949.256 344.761C948.891 344.92 948.499 345 948.08 345H943.356V343.824ZM945.681 340.393V343.824H948.094C948.312 343.824 948.515 343.77 948.702 343.66C948.889 343.551 949.053 343.41 949.194 343.236C949.336 343.059 949.445 342.858 949.522 342.635C949.604 342.411 949.646 342.184 949.646 341.951C949.646 341.751 949.604 341.557 949.522 341.37C949.44 341.183 949.329 341.017 949.188 340.871C949.051 340.725 948.887 340.609 948.695 340.522C948.508 340.436 948.308 340.393 948.094 340.393H945.681ZM945.681 335.819V339.203H948.032C948.251 339.203 948.454 339.16 948.641 339.073C948.832 338.987 948.996 338.87 949.133 338.725C949.274 338.579 949.386 338.41 949.468 338.219C949.55 338.027 949.591 337.829 949.591 337.624C949.591 337.401 949.55 337.182 949.468 336.968C949.386 336.749 949.274 336.555 949.133 336.387C948.992 336.218 948.825 336.081 948.634 335.977C948.447 335.872 948.246 335.819 948.032 335.819H945.681Z" fill="url(#paint52_linear)"/>
<path d="M914.722 67.8242H915.727V60.2432L913.628 61.3848V59.9561L916.513 58.3428H917.06V67.8242H918.078V69H914.722V67.8242Z" fill="url(#paint53_linear)"/>
<path opacity="0.3" d="M1092.36 271.824H1093.34V263.819H1092.36V262.623L1097.02 262.637C1097.44 262.637 1097.83 262.716 1098.2 262.876C1098.57 263.031 1098.89 263.245 1099.17 263.519C1099.44 263.787 1099.65 264.106 1099.81 264.476C1099.97 264.845 1100.05 265.241 1100.05 265.665C1100.05 266.107 1099.92 266.51 1099.68 266.875C1099.43 267.24 1099.08 267.531 1098.62 267.75C1098.85 267.868 1099.05 268.007 1099.23 268.167C1099.42 268.322 1099.57 268.493 1099.7 268.68C1099.83 268.867 1099.92 269.065 1099.99 269.274C1100.07 269.484 1100.1 269.698 1100.1 269.917C1100.1 270.35 1100.02 270.753 1099.86 271.127C1099.71 271.501 1099.49 271.826 1099.22 272.104C1098.95 272.382 1098.62 272.601 1098.26 272.761C1097.89 272.92 1097.5 273 1097.08 273H1092.36V271.824ZM1094.68 268.393V271.824H1097.09C1097.31 271.824 1097.52 271.77 1097.7 271.66C1097.89 271.551 1098.05 271.41 1098.19 271.236C1098.34 271.059 1098.44 270.858 1098.52 270.635C1098.6 270.411 1098.65 270.184 1098.65 269.951C1098.65 269.751 1098.6 269.557 1098.52 269.37C1098.44 269.183 1098.33 269.017 1098.19 268.871C1098.05 268.725 1097.89 268.609 1097.7 268.522C1097.51 268.436 1097.31 268.393 1097.09 268.393H1094.68ZM1094.68 263.819V267.203H1097.03C1097.25 267.203 1097.45 267.16 1097.64 267.073C1097.83 266.987 1098 266.87 1098.13 266.725C1098.27 266.579 1098.39 266.41 1098.47 266.219C1098.55 266.027 1098.59 265.829 1098.59 265.624C1098.59 265.401 1098.55 265.182 1098.47 264.968C1098.39 264.749 1098.27 264.555 1098.13 264.387C1097.99 264.218 1097.83 264.081 1097.63 263.977C1097.45 263.872 1097.25 263.819 1097.03 263.819H1094.68Z" fill="url(#paint54_linear)"/>
<path opacity="0.3" d="M477.356 333.824H478.341V325.819H477.356V324.623L482.019 324.637C482.438 324.637 482.832 324.716 483.201 324.876C483.57 325.031 483.892 325.245 484.165 325.519C484.438 325.787 484.653 326.106 484.808 326.476C484.967 326.845 485.047 327.241 485.047 327.665C485.047 328.107 484.924 328.51 484.678 328.875C484.432 329.24 484.081 329.531 483.625 329.75C483.848 329.868 484.051 330.007 484.233 330.167C484.416 330.322 484.571 330.493 484.698 330.68C484.826 330.867 484.924 331.065 484.992 331.274C485.065 331.484 485.102 331.698 485.102 331.917C485.102 332.35 485.022 332.753 484.862 333.127C484.707 333.501 484.493 333.826 484.22 334.104C483.946 334.382 483.625 334.601 483.256 334.761C482.891 334.92 482.499 335 482.08 335H477.356V333.824ZM479.681 330.393V333.824H482.094C482.312 333.824 482.515 333.77 482.702 333.66C482.889 333.551 483.053 333.41 483.194 333.236C483.336 333.059 483.445 332.858 483.522 332.635C483.604 332.411 483.646 332.184 483.646 331.951C483.646 331.751 483.604 331.557 483.522 331.37C483.44 331.183 483.329 331.017 483.188 330.871C483.051 330.725 482.887 330.609 482.695 330.522C482.508 330.436 482.308 330.393 482.094 330.393H479.681ZM479.681 325.819V329.203H482.032C482.251 329.203 482.454 329.16 482.641 329.073C482.832 328.987 482.996 328.87 483.133 328.725C483.274 328.579 483.386 328.41 483.468 328.219C483.55 328.027 483.591 327.829 483.591 327.624C483.591 327.401 483.55 327.182 483.468 326.968C483.386 326.749 483.274 326.555 483.133 326.387C482.992 326.218 482.825 326.081 482.634 325.977C482.447 325.872 482.246 325.819 482.032 325.819H479.681Z" fill="url(#paint55_linear)"/>
<path opacity="0.3" d="M414.356 308.824H415.341V300.819H414.356V299.623L419.019 299.637C419.438 299.637 419.832 299.716 420.201 299.876C420.57 300.031 420.892 300.245 421.165 300.519C421.438 300.787 421.653 301.106 421.808 301.476C421.967 301.845 422.047 302.241 422.047 302.665C422.047 303.107 421.924 303.51 421.678 303.875C421.432 304.24 421.081 304.531 420.625 304.75C420.848 304.868 421.051 305.007 421.233 305.167C421.416 305.322 421.571 305.493 421.698 305.68C421.826 305.867 421.924 306.065 421.992 306.274C422.065 306.484 422.102 306.698 422.102 306.917C422.102 307.35 422.022 307.753 421.862 308.127C421.707 308.501 421.493 308.826 421.22 309.104C420.946 309.382 420.625 309.601 420.256 309.761C419.891 309.92 419.499 310 419.08 310H414.356V308.824ZM416.681 305.393V308.824H419.094C419.312 308.824 419.515 308.77 419.702 308.66C419.889 308.551 420.053 308.41 420.194 308.236C420.336 308.059 420.445 307.858 420.522 307.635C420.604 307.411 420.646 307.184 420.646 306.951C420.646 306.751 420.604 306.557 420.522 306.37C420.44 306.183 420.329 306.017 420.188 305.871C420.051 305.725 419.887 305.609 419.695 305.522C419.508 305.436 419.308 305.393 419.094 305.393H416.681ZM416.681 300.819V304.203H419.032C419.251 304.203 419.454 304.16 419.641 304.073C419.832 303.987 419.996 303.87 420.133 303.725C420.274 303.579 420.386 303.41 420.468 303.219C420.55 303.027 420.591 302.829 420.591 302.624C420.591 302.401 420.55 302.182 420.468 301.968C420.386 301.749 420.274 301.555 420.133 301.387C419.992 301.218 419.825 301.081 419.634 300.977C419.447 300.872 419.246 300.819 419.032 300.819H416.681Z" fill="url(#paint56_linear)"/>
<path opacity="0.1" d="M286.356 270.824H287.341V262.819H286.356V261.623L291.019 261.637C291.438 261.637 291.832 261.716 292.201 261.876C292.57 262.031 292.892 262.245 293.165 262.519C293.438 262.787 293.653 263.106 293.808 263.476C293.967 263.845 294.047 264.241 294.047 264.665C294.047 265.107 293.924 265.51 293.678 265.875C293.432 266.24 293.081 266.531 292.625 266.75C292.848 266.868 293.051 267.007 293.233 267.167C293.416 267.322 293.571 267.493 293.698 267.68C293.826 267.867 293.924 268.065 293.992 268.274C294.065 268.484 294.102 268.698 294.102 268.917C294.102 269.35 294.022 269.753 293.862 270.127C293.707 270.501 293.493 270.826 293.22 271.104C292.946 271.382 292.625 271.601 292.256 271.761C291.891 271.92 291.499 272 291.08 272H286.356V270.824ZM288.681 267.393V270.824H291.094C291.312 270.824 291.515 270.77 291.702 270.66C291.889 270.551 292.053 270.41 292.194 270.236C292.336 270.059 292.445 269.858 292.522 269.635C292.604 269.411 292.646 269.184 292.646 268.951C292.646 268.751 292.604 268.557 292.522 268.37C292.44 268.183 292.329 268.017 292.188 267.871C292.051 267.725 291.887 267.609 291.695 267.522C291.508 267.436 291.308 267.393 291.094 267.393H288.681ZM288.681 262.819V266.203H291.032C291.251 266.203 291.454 266.16 291.641 266.073C291.832 265.987 291.996 265.87 292.133 265.725C292.274 265.579 292.386 265.41 292.468 265.219C292.55 265.027 292.591 264.829 292.591 264.624C292.591 264.401 292.55 264.182 292.468 263.968C292.386 263.749 292.274 263.555 292.133 263.387C291.992 263.218 291.825 263.081 291.634 262.977C291.447 262.872 291.246 262.819 291.032 262.819H288.681Z" fill="url(#paint57_linear)"/>
<path d="M310.726 319.637H318.149V322.569H316.748V320.819H313.05V324.148H316.611V325.297H313.05V328.824H314.089V330H310.726V328.824H311.71V320.819H310.726V319.637Z" fill="url(#paint58_linear)"/>
<path opacity="0.3" d="M286.726 340.637H294.149V343.569H292.748V341.819H289.05V345.148H292.611V346.297H289.05V349.824H290.089V351H286.726V349.824H287.71V341.819H286.726V340.637Z" fill="url(#paint59_linear)"/>
<path opacity="0.6" d="M169.22 257.041V254.963C169.047 255.323 168.83 255.637 168.57 255.906C168.311 256.171 168.021 256.389 167.702 256.562C167.383 256.736 167.041 256.866 166.677 256.952C166.317 257.039 165.95 257.082 165.576 257.082C164.902 257.082 164.28 256.97 163.71 256.747C163.14 256.519 162.623 256.159 162.158 255.667C161.698 255.175 161.345 254.591 161.099 253.917C160.857 253.243 160.736 252.538 160.736 251.805C160.736 251.066 160.857 250.369 161.099 249.713C161.345 249.057 161.687 248.485 162.124 247.997C162.566 247.509 163.09 247.127 163.696 246.849C164.307 246.571 164.968 246.432 165.679 246.432C166.335 246.432 166.898 246.525 167.367 246.712C167.841 246.899 168.244 247.127 168.577 247.396C168.914 247.66 169.183 247.913 169.384 248.154H170.047V249.371H168.577C168.272 248.852 167.866 248.441 167.36 248.141C166.859 247.84 166.296 247.694 165.672 247.703C165.148 247.703 164.667 247.815 164.229 248.038C163.792 248.261 163.416 248.562 163.102 248.94C162.792 249.319 162.55 249.754 162.377 250.246C162.204 250.738 162.117 251.258 162.117 251.805C162.117 252.411 162.213 252.974 162.404 253.493C162.596 254.013 162.84 254.434 163.136 254.758C163.432 255.081 163.797 255.35 164.229 255.564C164.667 255.774 165.15 255.879 165.679 255.879C166.554 255.879 167.271 255.667 167.832 255.243C168.393 254.815 168.785 254.149 169.008 253.247H166.109V252.071H170.491V257.041H169.22Z" fill="url(#paint60_linear)"/>
<path opacity="0.2" d="M911.726 19.6367H919.149V22.5693H917.748V20.8193H914.05V24.1484H917.611V25.2969H914.05V28.8242H915.089V30H911.726V28.8242H912.71V20.8193H911.726V19.6367Z" fill="url(#paint61_linear)"/>
<path opacity="0.3" d="M818.726 153.637H826.149V156.569H824.748V154.819H821.05V158.148H824.611V159.297H821.05V162.824H822.089V164H818.726V162.824H819.71V154.819H818.726V153.637Z" fill="url(#paint62_linear)"/>
<path opacity="0.2" d="M902.726 284.637H910.149V287.569H908.748V285.819H905.05V289.148H908.611V290.297H905.05V293.824H906.089V295H902.726V293.824H903.71V285.819H902.726V284.637Z" fill="url(#paint63_linear)"/>
<path opacity="0.2" d="M1069.73 262.637H1077.15V265.569H1075.75V263.819H1072.05V267.148H1075.61V268.297H1072.05V271.824H1073.09V273H1069.73V271.824H1070.71V263.819H1069.73V262.637Z" fill="url(#paint64_linear)"/>
<path opacity="0.2" d="M860.726 374.637H868.149V377.569H866.748V375.819H863.05V379.148H866.611V380.297H863.05V383.824H864.089V385H860.726V383.824H861.71V375.819H860.726V374.637Z" fill="url(#paint65_linear)"/>
<path opacity="0.5" d="M818.726 355.637H826.149V358.569H824.748V356.819H821.05V360.148H824.611V361.297H821.05V364.824H822.089V366H818.726V364.824H819.71V356.819H818.726V355.637Z" fill="url(#paint66_linear)"/>
<path opacity="0.2" d="M719.172 302.371C718.867 301.852 718.461 301.444 717.955 301.147C717.454 300.851 716.893 300.703 716.273 300.703C715.745 300.703 715.262 300.815 714.824 301.038C714.387 301.261 714.011 301.562 713.696 301.94C713.386 302.314 713.145 302.749 712.972 303.246C712.799 303.738 712.712 304.258 712.712 304.805C712.712 305.452 712.808 306.026 712.999 306.527C713.19 307.024 713.439 307.439 713.744 307.771C714.054 308.1 714.421 308.375 714.845 308.599C715.269 308.817 715.745 308.927 716.273 308.927C716.993 308.927 717.62 308.754 718.153 308.407C718.687 308.056 719.142 307.482 719.521 306.685L720.724 307.252C720.55 307.744 720.257 308.22 719.842 308.681C719.427 309.136 718.914 309.506 718.304 309.788C717.698 310.066 717.025 310.205 716.287 310.205C715.581 310.205 714.931 310.073 714.339 309.809C713.746 309.54 713.218 309.159 712.753 308.667C712.293 308.175 711.939 307.591 711.693 306.917C711.452 306.243 711.331 305.538 711.331 304.805C711.331 304.066 711.452 303.369 711.693 302.713C711.939 302.057 712.281 301.487 712.719 301.004C713.161 300.516 713.685 300.133 714.291 299.855C714.902 299.573 715.562 299.432 716.273 299.432C716.907 299.432 717.454 299.523 717.914 299.705C718.374 299.883 718.764 300.097 719.083 300.348C719.407 300.594 719.685 300.863 719.917 301.154H720.642V302.371H719.172Z" fill="url(#paint67_linear)"/>
<path opacity="0.2" d="M676.172 284.371C675.867 283.852 675.461 283.444 674.955 283.147C674.454 282.851 673.893 282.703 673.273 282.703C672.745 282.703 672.262 282.815 671.824 283.038C671.387 283.261 671.011 283.562 670.696 283.94C670.386 284.314 670.145 284.749 669.972 285.246C669.799 285.738 669.712 286.258 669.712 286.805C669.712 287.452 669.808 288.026 669.999 288.527C670.19 289.024 670.439 289.439 670.744 289.771C671.054 290.1 671.421 290.375 671.845 290.599C672.269 290.817 672.745 290.927 673.273 290.927C673.993 290.927 674.62 290.754 675.153 290.407C675.687 290.056 676.142 289.482 676.521 288.685L677.724 289.252C677.55 289.744 677.257 290.22 676.842 290.681C676.427 291.136 675.914 291.506 675.304 291.788C674.698 292.066 674.025 292.205 673.287 292.205C672.581 292.205 671.931 292.073 671.339 291.809C670.746 291.54 670.218 291.159 669.753 290.667C669.293 290.175 668.939 289.591 668.693 288.917C668.452 288.243 668.331 287.538 668.331 286.805C668.331 286.066 668.452 285.369 668.693 284.713C668.939 284.057 669.281 283.487 669.719 283.004C670.161 282.516 670.685 282.133 671.291 281.855C671.902 281.573 672.562 281.432 673.273 281.432C673.907 281.432 674.454 281.523 674.914 281.705C675.374 281.883 675.764 282.097 676.083 282.348C676.407 282.594 676.685 282.863 676.917 283.154H677.642V284.371H676.172Z" fill="url(#paint68_linear)"/>
<path opacity="0.1" d="M653.172 191.371C652.867 190.852 652.461 190.444 651.955 190.147C651.454 189.851 650.893 189.703 650.273 189.703C649.745 189.703 649.262 189.815 648.824 190.038C648.387 190.261 648.011 190.562 647.696 190.94C647.386 191.314 647.145 191.749 646.972 192.246C646.799 192.738 646.712 193.258 646.712 193.805C646.712 194.452 646.808 195.026 646.999 195.527C647.19 196.024 647.439 196.439 647.744 196.771C648.054 197.1 648.421 197.375 648.845 197.599C649.269 197.817 649.745 197.927 650.273 197.927C650.993 197.927 651.62 197.754 652.153 197.407C652.687 197.056 653.142 196.482 653.521 195.685L654.724 196.252C654.55 196.744 654.257 197.22 653.842 197.681C653.427 198.136 652.914 198.506 652.304 198.788C651.698 199.066 651.025 199.205 650.287 199.205C649.581 199.205 648.931 199.073 648.339 198.809C647.746 198.54 647.218 198.159 646.753 197.667C646.293 197.175 645.939 196.591 645.693 195.917C645.452 195.243 645.331 194.538 645.331 193.805C645.331 193.066 645.452 192.369 645.693 191.713C645.939 191.057 646.281 190.487 646.719 190.004C647.161 189.516 647.685 189.133 648.291 188.855C648.902 188.573 649.562 188.432 650.273 188.432C650.907 188.432 651.454 188.523 651.914 188.705C652.374 188.883 652.764 189.097 653.083 189.348C653.407 189.594 653.685 189.863 653.917 190.154H654.642V191.371H653.172Z" fill="url(#paint69_linear)"/>
<path opacity="0.3" d="M825.172 194.371C824.867 193.852 824.461 193.444 823.955 193.147C823.454 192.851 822.893 192.703 822.273 192.703C821.745 192.703 821.262 192.815 820.824 193.038C820.387 193.261 820.011 193.562 819.696 193.94C819.386 194.314 819.145 194.749 818.972 195.246C818.799 195.738 818.712 196.258 818.712 196.805C818.712 197.452 818.808 198.026 818.999 198.527C819.19 199.024 819.439 199.439 819.744 199.771C820.054 200.1 820.421 200.375 820.845 200.599C821.269 200.817 821.745 200.927 822.273 200.927C822.993 200.927 823.62 200.754 824.153 200.407C824.687 200.056 825.142 199.482 825.521 198.685L826.724 199.252C826.55 199.744 826.257 200.22 825.842 200.681C825.427 201.136 824.914 201.506 824.304 201.788C823.698 202.066 823.025 202.205 822.287 202.205C821.581 202.205 820.931 202.073 820.339 201.809C819.746 201.54 819.218 201.159 818.753 200.667C818.293 200.175 817.939 199.591 817.693 198.917C817.452 198.243 817.331 197.538 817.331 196.805C817.331 196.066 817.452 195.369 817.693 194.713C817.939 194.057 818.281 193.487 818.719 193.004C819.161 192.516 819.685 192.133 820.291 191.855C820.902 191.573 821.562 191.432 822.273 191.432C822.907 191.432 823.454 191.523 823.914 191.705C824.374 191.883 824.764 192.097 825.083 192.348C825.407 192.594 825.685 192.863 825.917 193.154H826.642V194.371H825.172Z" fill="url(#paint70_linear)"/>
<path d="M528.172 27.3711C527.867 26.8516 527.461 26.4437 526.955 26.1475C526.454 25.8512 525.893 25.7031 525.273 25.7031C524.745 25.7031 524.262 25.8148 523.824 26.0381C523.387 26.2614 523.011 26.5622 522.696 26.9404C522.386 27.3141 522.145 27.7493 521.972 28.2461C521.799 28.7383 521.712 29.2578 521.712 29.8047C521.712 30.4518 521.808 31.026 521.999 31.5273C522.19 32.0241 522.439 32.4388 522.744 32.7715C523.054 33.0996 523.421 33.3753 523.845 33.5986C524.269 33.8174 524.745 33.9268 525.273 33.9268C525.993 33.9268 526.62 33.7536 527.153 33.4072C527.687 33.0563 528.142 32.4821 528.521 31.6846L529.724 32.252C529.55 32.7441 529.257 33.2204 528.842 33.6807C528.427 34.1364 527.914 34.5055 527.304 34.7881C526.698 35.0661 526.025 35.2051 525.287 35.2051C524.581 35.2051 523.931 35.0729 523.339 34.8086C522.746 34.5397 522.218 34.1592 521.753 33.667C521.293 33.1748 520.939 32.5915 520.693 31.917C520.452 31.2425 520.331 30.5384 520.331 29.8047C520.331 29.0664 520.452 28.3691 520.693 27.7129C520.939 27.0566 521.281 26.487 521.719 26.0039C522.161 25.5163 522.685 25.1335 523.291 24.8555C523.902 24.5729 524.562 24.4316 525.273 24.4316C525.907 24.4316 526.454 24.5228 526.914 24.7051C527.374 24.8828 527.764 25.097 528.083 25.3477C528.407 25.5938 528.685 25.8626 528.917 26.1543H529.642V27.3711H528.172Z" fill="url(#paint71_linear)"/>
<path opacity="0.3" d="M185.172 110.371C184.867 109.852 184.461 109.444 183.955 109.147C183.454 108.851 182.893 108.703 182.273 108.703C181.745 108.703 181.262 108.815 180.824 109.038C180.387 109.261 180.011 109.562 179.696 109.94C179.386 110.314 179.145 110.749 178.972 111.246C178.799 111.738 178.712 112.258 178.712 112.805C178.712 113.452 178.808 114.026 178.999 114.527C179.19 115.024 179.439 115.439 179.744 115.771C180.054 116.1 180.421 116.375 180.845 116.599C181.269 116.817 181.745 116.927 182.273 116.927C182.993 116.927 183.62 116.754 184.153 116.407C184.687 116.056 185.142 115.482 185.521 114.685L186.724 115.252C186.55 115.744 186.257 116.22 185.842 116.681C185.427 117.136 184.914 117.506 184.304 117.788C183.698 118.066 183.025 118.205 182.287 118.205C181.581 118.205 180.931 118.073 180.339 117.809C179.746 117.54 179.218 117.159 178.753 116.667C178.293 116.175 177.939 115.591 177.693 114.917C177.452 114.243 177.331 113.538 177.331 112.805C177.331 112.066 177.452 111.369 177.693 110.713C177.939 110.057 178.281 109.487 178.719 109.004C179.161 108.516 179.685 108.133 180.291 107.855C180.902 107.573 181.562 107.432 182.273 107.432C182.907 107.432 183.454 107.523 183.914 107.705C184.374 107.883 184.764 108.097 185.083 108.348C185.407 108.594 185.685 108.863 185.917 109.154H186.642V110.371H185.172Z" fill="url(#paint72_linear)"/>
<path opacity="0.4" d="M273.172 64.3711C272.867 63.8516 272.461 63.4437 271.955 63.1475C271.454 62.8512 270.893 62.7031 270.273 62.7031C269.745 62.7031 269.262 62.8148 268.824 63.0381C268.387 63.2614 268.011 63.5622 267.696 63.9404C267.386 64.3141 267.145 64.7493 266.972 65.2461C266.799 65.7383 266.712 66.2578 266.712 66.8047C266.712 67.4518 266.808 68.026 266.999 68.5273C267.19 69.0241 267.439 69.4388 267.744 69.7715C268.054 70.0996 268.421 70.3753 268.845 70.5986C269.269 70.8174 269.745 70.9268 270.273 70.9268C270.993 70.9268 271.62 70.7536 272.153 70.4072C272.687 70.0563 273.142 69.4821 273.521 68.6846L274.724 69.252C274.55 69.7441 274.257 70.2204 273.842 70.6807C273.427 71.1364 272.914 71.5055 272.304 71.7881C271.698 72.0661 271.025 72.2051 270.287 72.2051C269.581 72.2051 268.931 72.0729 268.339 71.8086C267.746 71.5397 267.218 71.1592 266.753 70.667C266.293 70.1748 265.939 69.5915 265.693 68.917C265.452 68.2425 265.331 67.5384 265.331 66.8047C265.331 66.0664 265.452 65.3691 265.693 64.7129C265.939 64.0566 266.281 63.487 266.719 63.0039C267.161 62.5163 267.685 62.1335 268.291 61.8555C268.902 61.5729 269.562 61.4316 270.273 61.4316C270.907 61.4316 271.454 61.5228 271.914 61.7051C272.374 61.8828 272.764 62.097 273.083 62.3477C273.407 62.5938 273.685 62.8626 273.917 63.1543H274.642V64.3711H273.172Z" fill="url(#paint73_linear)"/>
<path opacity="0.6" d="M188.172 301.371C187.867 300.852 187.461 300.444 186.955 300.147C186.454 299.851 185.893 299.703 185.273 299.703C184.745 299.703 184.262 299.815 183.824 300.038C183.387 300.261 183.011 300.562 182.696 300.94C182.386 301.314 182.145 301.749 181.972 302.246C181.799 302.738 181.712 303.258 181.712 303.805C181.712 304.452 181.808 305.026 181.999 305.527C182.19 306.024 182.439 306.439 182.744 306.771C183.054 307.1 183.421 307.375 183.845 307.599C184.269 307.817 184.745 307.927 185.273 307.927C185.993 307.927 186.62 307.754 187.153 307.407C187.687 307.056 188.142 306.482 188.521 305.685L189.724 306.252C189.55 306.744 189.257 307.22 188.842 307.681C188.427 308.136 187.914 308.506 187.304 308.788C186.698 309.066 186.025 309.205 185.287 309.205C184.581 309.205 183.931 309.073 183.339 308.809C182.746 308.54 182.218 308.159 181.753 307.667C181.293 307.175 180.939 306.591 180.693 305.917C180.452 305.243 180.331 304.538 180.331 303.805C180.331 303.066 180.452 302.369 180.693 301.713C180.939 301.057 181.281 300.487 181.719 300.004C182.161 299.516 182.685 299.133 183.291 298.855C183.902 298.573 184.562 298.432 185.273 298.432C185.907 298.432 186.454 298.523 186.914 298.705C187.374 298.883 187.764 299.097 188.083 299.348C188.407 299.594 188.685 299.863 188.917 300.154H189.642V301.371H188.172Z" fill="url(#paint74_linear)"/>
<path opacity="0.2" d="M55.1719 185.371C54.8665 184.852 54.4609 184.444 53.9551 184.147C53.4538 183.851 52.8932 183.703 52.2734 183.703C51.7448 183.703 51.2617 183.815 50.8242 184.038C50.3867 184.261 50.0107 184.562 49.6963 184.94C49.3864 185.314 49.1449 185.749 48.9717 186.246C48.7985 186.738 48.7119 187.258 48.7119 187.805C48.7119 188.452 48.8076 189.026 48.999 189.527C49.1904 190.024 49.4388 190.439 49.7441 190.771C50.054 191.1 50.4209 191.375 50.8447 191.599C51.2686 191.817 51.7448 191.927 52.2734 191.927C52.9935 191.927 53.6201 191.754 54.1533 191.407C54.6865 191.056 55.1423 190.482 55.5205 189.685L56.7236 190.252C56.5505 190.744 56.2565 191.22 55.8418 191.681C55.4271 192.136 54.9144 192.506 54.3037 192.788C53.6976 193.066 53.0254 193.205 52.2871 193.205C51.5807 193.205 50.9313 193.073 50.3389 192.809C49.7464 192.54 49.2178 192.159 48.7529 191.667C48.2926 191.175 47.9395 190.591 47.6934 189.917C47.4518 189.243 47.3311 188.538 47.3311 187.805C47.3311 187.066 47.4518 186.369 47.6934 185.713C47.9395 185.057 48.2812 184.487 48.7188 184.004C49.1608 183.516 49.6849 183.133 50.291 182.855C50.9017 182.573 51.5625 182.432 52.2734 182.432C52.9069 182.432 53.4538 182.523 53.9141 182.705C54.3743 182.883 54.764 183.097 55.083 183.348C55.4066 183.594 55.6846 183.863 55.917 184.154H56.6416V185.371H55.1719Z" fill="url(#paint75_linear)"/>
<path opacity="0.2" d="M907.172 171.371C906.867 170.852 906.461 170.444 905.955 170.147C905.454 169.851 904.893 169.703 904.273 169.703C903.745 169.703 903.262 169.815 902.824 170.038C902.387 170.261 902.011 170.562 901.696 170.94C901.386 171.314 901.145 171.749 900.972 172.246C900.799 172.738 900.712 173.258 900.712 173.805C900.712 174.452 900.808 175.026 900.999 175.527C901.19 176.024 901.439 176.439 901.744 176.771C902.054 177.1 902.421 177.375 902.845 177.599C903.269 177.817 903.745 177.927 904.273 177.927C904.993 177.927 905.62 177.754 906.153 177.407C906.687 177.056 907.142 176.482 907.521 175.685L908.724 176.252C908.55 176.744 908.257 177.22 907.842 177.681C907.427 178.136 906.914 178.506 906.304 178.788C905.698 179.066 905.025 179.205 904.287 179.205C903.581 179.205 902.931 179.073 902.339 178.809C901.746 178.54 901.218 178.159 900.753 177.667C900.293 177.175 899.939 176.591 899.693 175.917C899.452 175.243 899.331 174.538 899.331 173.805C899.331 173.066 899.452 172.369 899.693 171.713C899.939 171.057 900.281 170.487 900.719 170.004C901.161 169.516 901.685 169.133 902.291 168.855C902.902 168.573 903.562 168.432 904.273 168.432C904.907 168.432 905.454 168.523 905.914 168.705C906.374 168.883 906.764 169.097 907.083 169.348C907.407 169.594 907.685 169.863 907.917 170.154H908.642V171.371H907.172Z" fill="url(#paint76_linear)"/>
<path d="M1118.17 249.371C1117.87 248.852 1117.46 248.444 1116.96 248.147C1116.45 247.851 1115.89 247.703 1115.27 247.703C1114.74 247.703 1114.26 247.815 1113.82 248.038C1113.39 248.261 1113.01 248.562 1112.7 248.94C1112.39 249.314 1112.14 249.749 1111.97 250.246C1111.8 250.738 1111.71 251.258 1111.71 251.805C1111.71 252.452 1111.81 253.026 1112 253.527C1112.19 254.024 1112.44 254.439 1112.74 254.771C1113.05 255.1 1113.42 255.375 1113.84 255.599C1114.27 255.817 1114.74 255.927 1115.27 255.927C1115.99 255.927 1116.62 255.754 1117.15 255.407C1117.69 255.056 1118.14 254.482 1118.52 253.685L1119.72 254.252C1119.55 254.744 1119.26 255.22 1118.84 255.681C1118.43 256.136 1117.91 256.506 1117.3 256.788C1116.7 257.066 1116.03 257.205 1115.29 257.205C1114.58 257.205 1113.93 257.073 1113.34 256.809C1112.75 256.54 1112.22 256.159 1111.75 255.667C1111.29 255.175 1110.94 254.591 1110.69 253.917C1110.45 253.243 1110.33 252.538 1110.33 251.805C1110.33 251.066 1110.45 250.369 1110.69 249.713C1110.94 249.057 1111.28 248.487 1111.72 248.004C1112.16 247.516 1112.68 247.133 1113.29 246.855C1113.9 246.573 1114.56 246.432 1115.27 246.432C1115.91 246.432 1116.45 246.523 1116.91 246.705C1117.37 246.883 1117.76 247.097 1118.08 247.348C1118.41 247.594 1118.68 247.863 1118.92 248.154H1119.64V249.371H1118.17Z" fill="url(#paint77_linear)"/>
<path opacity="0.2" d="M845.172 393.371C844.867 392.852 844.461 392.444 843.955 392.147C843.454 391.851 842.893 391.703 842.273 391.703C841.745 391.703 841.262 391.815 840.824 392.038C840.387 392.261 840.011 392.562 839.696 392.94C839.386 393.314 839.145 393.749 838.972 394.246C838.799 394.738 838.712 395.258 838.712 395.805C838.712 396.452 838.808 397.026 838.999 397.527C839.19 398.024 839.439 398.439 839.744 398.771C840.054 399.1 840.421 399.375 840.845 399.599C841.269 399.817 841.745 399.927 842.273 399.927C842.993 399.927 843.62 399.754 844.153 399.407C844.687 399.056 845.142 398.482 845.521 397.685L846.724 398.252C846.55 398.744 846.257 399.22 845.842 399.681C845.427 400.136 844.914 400.506 844.304 400.788C843.698 401.066 843.025 401.205 842.287 401.205C841.581 401.205 840.931 401.073 840.339 400.809C839.746 400.54 839.218 400.159 838.753 399.667C838.293 399.175 837.939 398.591 837.693 397.917C837.452 397.243 837.331 396.538 837.331 395.805C837.331 395.066 837.452 394.369 837.693 393.713C837.939 393.057 838.281 392.487 838.719 392.004C839.161 391.516 839.685 391.133 840.291 390.855C840.902 390.573 841.562 390.432 842.273 390.432C842.907 390.432 843.454 390.523 843.914 390.705C844.374 390.883 844.764 391.097 845.083 391.348C845.407 391.594 845.685 391.863 845.917 392.154H846.642V393.371H845.172Z" fill="url(#paint78_linear)"/>
</g>
<defs>
<filter id="filter0_d" x="37.3311" y="0.636719" width="1092.39" height="417.363" filterUnits="userSpaceOnUse" color-interpolation-filters="sRGB">
<feFlood flood-opacity="0" result="BackgroundImageFix"/>
<feColorMatrix in="SourceAlpha" type="matrix" values="0 0 0 0 0 0 0 0 0 0 0 0 0 0 0 0 0 0 127 0"/>
<feOffset dy="4"/>
<feGaussianBlur stdDeviation="5"/>
<feColorMatrix type="matrix" values="0 0 0 0 0.113725 0 0 0 0 0.913725 0 0 0 0 0.713726 0 0 0 0.2 0"/>
<feBlend mode="normal" in2="BackgroundImageFix" result="effect1_dropShadow"/>
<feBlend mode="normal" in="SourceGraphic" in2="effect1_dropShadow" result="shape"/>
</filter>
<linearGradient id="paint0_linear" x1="0.5" y1="284" x2="0.5" y2="421" gradientUnits="userSpaceOnUse">
<stop offset="0.00552486" stop-color="white" stop-opacity="0"/>
<stop offset="0.497238" stop-color="#0085FF" stop-opacity="0.56"/>
<stop offset="1" stop-color="white" stop-opacity="0"/>
</linearGradient>
<linearGradient id="paint1_linear" x1="349.5" y1="377" x2="349.5" y2="514" gradientUnits="userSpaceOnUse">
<stop offset="0.00552486" stop-color="white" stop-opacity="0"/>
<stop offset="0.497238" stop-color="#0085FF" stop-opacity="0.56"/>
<stop offset="1" stop-color="white" stop-opacity="0"/>
</linearGradient>
<linearGradient id="paint2_linear" x1="949.5" y1="103" x2="949.5" y2="240" gradientUnits="userSpaceOnUse">
<stop offset="0.00552486" stop-color="white" stop-opacity="0"/>
<stop offset="0.497238" stop-color="#0085FF" stop-opacity="0.56"/>
<stop offset="1" stop-color="white" stop-opacity="0"/>
</linearGradient>
<linearGradient id="paint3_linear" x1="1104.5" y1="305" x2="1104.5" y2="442" gradientUnits="userSpaceOnUse">
<stop offset="0.00552486" stop-color="white" stop-opacity="0"/>
<stop offset="0.497238" stop-color="#0085FF" stop-opacity="0.56"/>
<stop offset="1" stop-color="white" stop-opacity="0"/>
</linearGradient>
<linearGradient id="paint4_linear" x1="355" y1="22" x2="355" y2="40" gradientUnits="userSpaceOnUse">
<stop stop-color="#00FFE0"/>
<stop offset="1" stop-color="white" stop-opacity="0"/>
</linearGradient>
<linearGradient id="paint5_linear" x1="376.336" y1="3" x2="376.336" y2="21" gradientUnits="userSpaceOnUse">
<stop stop-color="#00FFE0"/>
<stop offset="1" stop-color="white" stop-opacity="0"/>
</linearGradient>
<linearGradient id="paint6_linear" x1="314" y1="293" x2="314" y2="311" gradientUnits="userSpaceOnUse">
<stop stop-color="#00FFE0"/>
<stop offset="1" stop-color="white" stop-opacity="0"/>
</linearGradient>
<linearGradient id="paint7_linear" x1="375.336" y1="112" x2="375.336" y2="130" gradientUnits="userSpaceOnUse">
<stop stop-color="#00FFE0"/>
<stop offset="1" stop-color="white" stop-opacity="0"/>
</linearGradient>
<linearGradient id="paint8_linear" x1="269" y1="77" x2="269" y2="95" gradientUnits="userSpaceOnUse">
<stop stop-color="#00FFE0"/>
<stop offset="1" stop-color="white" stop-opacity="0"/>
</linearGradient>
<linearGradient id="paint9_linear" x1="1053" y1="131" x2="1053" y2="149" gradientUnits="userSpaceOnUse">
<stop stop-color="#00FFE0"/>
<stop offset="1" stop-color="white" stop-opacity="0"/>
</linearGradient>
<linearGradient id="paint10_linear" x1="247" y1="349" x2="247" y2="367" gradientUnits="userSpaceOnUse">
<stop stop-color="#00FFE0"/>
<stop offset="1" stop-color="white" stop-opacity="0"/>
</linearGradient>
<linearGradient id="paint11_linear" x1="246" y1="390" x2="246" y2="408" gradientUnits="userSpaceOnUse">
<stop stop-color="#00FFE0"/>
<stop offset="1" stop-color="white" stop-opacity="0"/>
</linearGradient>
<linearGradient id="paint12_linear" x1="481" y1="296" x2="481" y2="314" gradientUnits="userSpaceOnUse">
<stop stop-color="#00FFE0"/>
<stop offset="1" stop-color="white" stop-opacity="0"/>
</linearGradient>
<linearGradient id="paint13_linear" x1="333.324" y1="59" x2="333.324" y2="77" gradientUnits="userSpaceOnUse">
<stop stop-color="#00FFE0"/>
<stop offset="1" stop-color="white" stop-opacity="0"/>
</linearGradient>
<linearGradient id="paint14_linear" x1="104" y1="191" x2="104" y2="209" gradientUnits="userSpaceOnUse">
<stop stop-color="#00FFE0"/>
<stop offset="1" stop-color="white" stop-opacity="0"/>
</linearGradient>
<linearGradient id="paint15_linear" x1="333.324" y1="166" x2="333.324" y2="184" gradientUnits="userSpaceOnUse">
<stop stop-color="#00FFE0"/>
<stop offset="1" stop-color="white" stop-opacity="0"/>
</linearGradient>
<linearGradient id="paint16_linear" x1="524" y1="3" x2="524" y2="21" gradientUnits="userSpaceOnUse">
<stop stop-color="#00FFE0"/>
<stop offset="1" stop-color="white" stop-opacity="0"/>
</linearGradient>
<linearGradient id="paint17_linear" x1="502.324" y1="58" x2="502.324" y2="76" gradientUnits="userSpaceOnUse">
<stop stop-color="#00FFE0"/>
<stop offset="1" stop-color="white" stop-opacity="0"/>
</linearGradient>
<linearGradient id="paint18_linear" x1="437.324" y1="55" x2="437.324" y2="73" gradientUnits="userSpaceOnUse">
<stop stop-color="#00FFE0"/>
<stop offset="1" stop-color="white" stop-opacity="0"/>
</linearGradient>
<linearGradient id="paint19_linear" x1="417" y1="21" x2="417" y2="39" gradientUnits="userSpaceOnUse">
<stop stop-color="#00FFE0"/>
<stop offset="1" stop-color="white" stop-opacity="0"/>
</linearGradient>
<linearGradient id="paint20_linear" x1="254" y1="58" x2="254" y2="76" gradientUnits="userSpaceOnUse">
<stop stop-color="#00FFE0"/>
<stop offset="1" stop-color="white" stop-opacity="0"/>
</linearGradient>
<linearGradient id="paint21_linear" x1="617" y1="353" x2="617" y2="371" gradientUnits="userSpaceOnUse">
<stop stop-color="#00FFE0"/>
<stop offset="1" stop-color="white" stop-opacity="0"/>
</linearGradient>
<linearGradient id="paint22_linear" x1="290" y1="354" x2="290" y2="372" gradientUnits="userSpaceOnUse">
<stop stop-color="#00FFE0"/>
<stop offset="1" stop-color="white" stop-opacity="0"/>
</linearGradient>
<linearGradient id="paint23_linear" x1="948" y1="69" x2="948" y2="87" gradientUnits="userSpaceOnUse">
<stop stop-color="#00FFE0"/>
<stop offset="1" stop-color="white" stop-opacity="0"/>
</linearGradient>
<linearGradient id="paint24_linear" x1="1097" y1="243" x2="1097" y2="261" gradientUnits="userSpaceOnUse">
<stop stop-color="#00FFE0"/>
<stop offset="1" stop-color="white" stop-opacity="0"/>
</linearGradient>
<linearGradient id="paint25_linear" x1="247" y1="371" x2="247" y2="389" gradientUnits="userSpaceOnUse">
<stop stop-color="#00FFE0"/>
<stop offset="1" stop-color="white" stop-opacity="0"/>
</linearGradient>
<linearGradient id="paint26_linear" x1="968" y1="173" x2="968" y2="191" gradientUnits="userSpaceOnUse">
<stop stop-color="#00FFE0"/>
<stop offset="1" stop-color="white" stop-opacity="0"/>
</linearGradient>
<linearGradient id="paint27_linear" x1="1034" y1="160" x2="1034" y2="178" gradientUnits="userSpaceOnUse">
<stop stop-color="#00FFE0"/>
<stop offset="1" stop-color="white" stop-opacity="0"/>
</linearGradient>
<linearGradient id="paint28_linear" x1="880" y1="104" x2="880" y2="122" gradientUnits="userSpaceOnUse">
<stop stop-color="#00FFE0"/>
<stop offset="1" stop-color="white" stop-opacity="0"/>
</linearGradient>
<linearGradient id="paint29_linear" x1="798" y1="69" x2="798" y2="87" gradientUnits="userSpaceOnUse">
<stop stop-color="#00FFE0"/>
<stop offset="1" stop-color="white" stop-opacity="0"/>
</linearGradient>
<linearGradient id="paint30_linear" x1="916" y1="37" x2="916" y2="55" gradientUnits="userSpaceOnUse">
<stop stop-color="#00FFE0"/>
<stop offset="1" stop-color="white" stop-opacity="0"/>
</linearGradient>
<linearGradient id="paint31_linear" x1="934" y1="52" x2="934" y2="70" gradientUnits="userSpaceOnUse">
<stop stop-color="#00FFE0"/>
<stop offset="1" stop-color="white" stop-opacity="0"/>
</linearGradient>
<linearGradient id="paint32_linear" x1="893" y1="353" x2="893" y2="371" gradientUnits="userSpaceOnUse">
<stop stop-color="#00FFE0"/>
<stop offset="1" stop-color="white" stop-opacity="0"/>
</linearGradient>
<linearGradient id="paint33_linear" x1="523.793" y1="58" x2="523.793" y2="76" gradientUnits="userSpaceOnUse">
<stop stop-color="#00FFE0"/>
<stop offset="1" stop-color="white" stop-opacity="0"/>
</linearGradient>
<linearGradient id="paint34_linear" x1="254" y1="100" x2="254" y2="118" gradientUnits="userSpaceOnUse">
<stop stop-color="#00FFE0"/>
<stop offset="1" stop-color="white" stop-opacity="0"/>
</linearGradient>
<linearGradient id="paint35_linear" x1="185" y1="319" x2="185" y2="337" gradientUnits="userSpaceOnUse">
<stop stop-color="#00FFE0"/>
<stop offset="1" stop-color="white" stop-opacity="0"/>
</linearGradient>
<linearGradient id="paint36_linear" x1="866" y1="331" x2="866" y2="349" gradientUnits="userSpaceOnUse">
<stop stop-color="#00FFE0"/>
<stop offset="1" stop-color="white" stop-opacity="0"/>
</linearGradient>
<linearGradient id="paint37_linear" x1="354.793" y1="78" x2="354.793" y2="96" gradientUnits="userSpaceOnUse">
<stop stop-color="#00FFE0"/>
<stop offset="1" stop-color="white" stop-opacity="0"/>
</linearGradient>
<linearGradient id="paint38_linear" x1="966" y1="69" x2="966" y2="87" gradientUnits="userSpaceOnUse">
<stop stop-color="#00FFE0"/>
<stop offset="1" stop-color="white" stop-opacity="0"/>
</linearGradient>
<linearGradient id="paint39_linear" x1="603" y1="370" x2="603" y2="388" gradientUnits="userSpaceOnUse">
<stop stop-color="#00FFE0"/>
<stop offset="1" stop-color="white" stop-opacity="0"/>
</linearGradient>
<linearGradient id="paint40_linear" x1="152" y1="82" x2="152" y2="100" gradientUnits="userSpaceOnUse">
<stop stop-color="#00FFE0"/>
<stop offset="1" stop-color="white" stop-opacity="0"/>
</linearGradient>
<linearGradient id="paint41_linear" x1="310.035" y1="185" x2="310.035" y2="203" gradientUnits="userSpaceOnUse">
<stop stop-color="#00FFE0"/>
<stop offset="1" stop-color="white" stop-opacity="0"/>
</linearGradient>
<linearGradient id="paint42_linear" x1="397.035" y1="148" x2="397.035" y2="166" gradientUnits="userSpaceOnUse">
<stop stop-color="#00FFE0"/>
<stop offset="1" stop-color="white" stop-opacity="0"/>
</linearGradient>
<linearGradient id="paint43_linear" x1="310" y1="163" x2="310" y2="181" gradientUnits="userSpaceOnUse">
<stop stop-color="#00FFE0"/>
<stop offset="1" stop-color="white" stop-opacity="0"/>
</linearGradient>
<linearGradient id="paint44_linear" x1="1053" y1="159" x2="1053" y2="177" gradientUnits="userSpaceOnUse">
<stop stop-color="#00FFE0"/>
<stop offset="1" stop-color="white" stop-opacity="0"/>
</linearGradient>
<linearGradient id="paint45_linear" x1="673" y1="302" x2="673" y2="320" gradientUnits="userSpaceOnUse">
<stop stop-color="#00FFE0"/>
<stop offset="1" stop-color="white" stop-opacity="0"/>
</linearGradient>
<linearGradient id="paint46_linear" x1="603" y1="353" x2="603" y2="371" gradientUnits="userSpaceOnUse">
<stop stop-color="#00FFE0"/>
<stop offset="1" stop-color="white" stop-opacity="0"/>
</linearGradient>
<linearGradient id="paint47_linear" x1="865" y1="352" x2="865" y2="370" gradientUnits="userSpaceOnUse">
<stop stop-color="#00FFE0"/>
<stop offset="1" stop-color="white" stop-opacity="0"/>
</linearGradient>
<linearGradient id="paint48_linear" x1="881" y1="334" x2="881" y2="352" gradientUnits="userSpaceOnUse">
<stop stop-color="#00FFE0"/>
<stop offset="1" stop-color="white" stop-opacity="0"/>
</linearGradient>
<linearGradient id="paint49_linear" x1="1035" y1="182" x2="1035" y2="200" gradientUnits="userSpaceOnUse">
<stop stop-color="#00FFE0"/>
<stop offset="1" stop-color="white" stop-opacity="0"/>
</linearGradient>
<linearGradient id="paint50_linear" x1="1032" y1="258" x2="1032" y2="276" gradientUnits="userSpaceOnUse">
<stop stop-color="#00FFE0"/>
<stop offset="1" stop-color="white" stop-opacity="0"/>
</linearGradient>
<linearGradient id="paint51_linear" x1="778" y1="278" x2="778" y2="296" gradientUnits="userSpaceOnUse">
<stop stop-color="#00FFE0"/>
<stop offset="1" stop-color="white" stop-opacity="0"/>
</linearGradient>
<linearGradient id="paint52_linear" x1="947" y1="331" x2="947" y2="349" gradientUnits="userSpaceOnUse">
<stop stop-color="#00FFE0"/>
<stop offset="1" stop-color="white" stop-opacity="0"/>
</linearGradient>
<linearGradient id="paint53_linear" x1="916" y1="55" x2="916" y2="73" gradientUnits="userSpaceOnUse">
<stop stop-color="#00FFE0"/>
<stop offset="1" stop-color="white" stop-opacity="0"/>
</linearGradient>
<linearGradient id="paint54_linear" x1="1096" y1="259" x2="1096" y2="277" gradientUnits="userSpaceOnUse">
<stop stop-color="#00FFE0"/>
<stop offset="1" stop-color="white" stop-opacity="0"/>
</linearGradient>
<linearGradient id="paint55_linear" x1="481" y1="321" x2="481" y2="339" gradientUnits="userSpaceOnUse">
<stop stop-color="#00FFE0"/>
<stop offset="1" stop-color="white" stop-opacity="0"/>
</linearGradient>
<linearGradient id="paint56_linear" x1="418" y1="296" x2="418" y2="314" gradientUnits="userSpaceOnUse">
<stop stop-color="#00FFE0"/>
<stop offset="1" stop-color="white" stop-opacity="0"/>
</linearGradient>
<linearGradient id="paint57_linear" x1="290" y1="258" x2="290" y2="276" gradientUnits="userSpaceOnUse">
<stop stop-color="#00FFE0"/>
<stop offset="1" stop-color="white" stop-opacity="0"/>
</linearGradient>
<linearGradient id="paint58_linear" x1="314" y1="316" x2="314" y2="334" gradientUnits="userSpaceOnUse">
<stop stop-color="#00FFE0"/>
<stop offset="1" stop-color="white" stop-opacity="0"/>
</linearGradient>
<linearGradient id="paint59_linear" x1="290" y1="337" x2="290" y2="355" gradientUnits="userSpaceOnUse">
<stop stop-color="#00FFE0"/>
<stop offset="1" stop-color="white" stop-opacity="0"/>
</linearGradient>
<linearGradient id="paint60_linear" x1="166" y1="243" x2="166" y2="261" gradientUnits="userSpaceOnUse">
<stop stop-color="#00FFE0"/>
<stop offset="1" stop-color="white" stop-opacity="0"/>
</linearGradient>
<linearGradient id="paint61_linear" x1="915" y1="16" x2="915" y2="34" gradientUnits="userSpaceOnUse">
<stop stop-color="#00FFE0"/>
<stop offset="1" stop-color="white" stop-opacity="0"/>
</linearGradient>
<linearGradient id="paint62_linear" x1="822" y1="150" x2="822" y2="168" gradientUnits="userSpaceOnUse">
<stop stop-color="#00FFE0"/>
<stop offset="1" stop-color="white" stop-opacity="0"/>
</linearGradient>
<linearGradient id="paint63_linear" x1="906" y1="281" x2="906" y2="299" gradientUnits="userSpaceOnUse">
<stop stop-color="#00FFE0"/>
<stop offset="1" stop-color="white" stop-opacity="0"/>
</linearGradient>
<linearGradient id="paint64_linear" x1="1073" y1="259" x2="1073" y2="277" gradientUnits="userSpaceOnUse">
<stop stop-color="#00FFE0"/>
<stop offset="1" stop-color="white" stop-opacity="0"/>
</linearGradient>
<linearGradient id="paint65_linear" x1="864" y1="371" x2="864" y2="389" gradientUnits="userSpaceOnUse">
<stop stop-color="#00FFE0"/>
<stop offset="1" stop-color="white" stop-opacity="0"/>
</linearGradient>
<linearGradient id="paint66_linear" x1="822" y1="352" x2="822" y2="370" gradientUnits="userSpaceOnUse">
<stop stop-color="#00FFE0"/>
<stop offset="1" stop-color="white" stop-opacity="0"/>
</linearGradient>
<linearGradient id="paint67_linear" x1="716" y1="296" x2="716" y2="314" gradientUnits="userSpaceOnUse">
<stop stop-color="#00FFE0"/>
<stop offset="1" stop-color="white" stop-opacity="0"/>
</linearGradient>
<linearGradient id="paint68_linear" x1="673" y1="278" x2="673" y2="296" gradientUnits="userSpaceOnUse">
<stop stop-color="#00FFE0"/>
<stop offset="1" stop-color="white" stop-opacity="0"/>
</linearGradient>
<linearGradient id="paint69_linear" x1="650" y1="185" x2="650" y2="203" gradientUnits="userSpaceOnUse">
<stop stop-color="#00FFE0"/>
<stop offset="1" stop-color="white" stop-opacity="0"/>
</linearGradient>
<linearGradient id="paint70_linear" x1="822" y1="188" x2="822" y2="206" gradientUnits="userSpaceOnUse">
<stop stop-color="#00FFE0"/>
<stop offset="1" stop-color="white" stop-opacity="0"/>
</linearGradient>
<linearGradient id="paint71_linear" x1="525" y1="21" x2="525" y2="39" gradientUnits="userSpaceOnUse">
<stop stop-color="#00FFE0"/>
<stop offset="1" stop-color="white" stop-opacity="0"/>
</linearGradient>
<linearGradient id="paint72_linear" x1="182" y1="104" x2="182" y2="122" gradientUnits="userSpaceOnUse">
<stop stop-color="#00FFE0"/>
<stop offset="1" stop-color="white" stop-opacity="0"/>
</linearGradient>
<linearGradient id="paint73_linear" x1="270" y1="58" x2="270" y2="76" gradientUnits="userSpaceOnUse">
<stop stop-color="#00FFE0"/>
<stop offset="1" stop-color="white" stop-opacity="0"/>
</linearGradient>
<linearGradient id="paint74_linear" x1="185" y1="295" x2="185" y2="313" gradientUnits="userSpaceOnUse">
<stop stop-color="#00FFE0"/>
<stop offset="1" stop-color="white" stop-opacity="0"/>
</linearGradient>
<linearGradient id="paint75_linear" x1="52" y1="179" x2="52" y2="197" gradientUnits="userSpaceOnUse">
<stop stop-color="#00FFE0"/>
<stop offset="1" stop-color="white" stop-opacity="0"/>
</linearGradient>
<linearGradient id="paint76_linear" x1="904" y1="165" x2="904" y2="183" gradientUnits="userSpaceOnUse">
<stop stop-color="#00FFE0"/>
<stop offset="1" stop-color="white" stop-opacity="0"/>
</linearGradient>
<linearGradient id="paint77_linear" x1="1115" y1="243" x2="1115" y2="261" gradientUnits="userSpaceOnUse">
<stop stop-color="#00FFE0"/>
<stop offset="1" stop-color="white" stop-opacity="0"/>
</linearGradient>
<linearGradient id="paint78_linear" x1="842" y1="387" x2="842" y2="405" gradientUnits="userSpaceOnUse">
<stop stop-color="#00FFE0"/>
<stop offset="1" stop-color="white" stop-opacity="0"/>
</linearGradient>
</defs>
</svg>
