<svg width="16" height="16" viewBox="0 0 16 16" fill="none" xmlns="http://www.w3.org/2000/svg">
<g opacity="0.6">
<path d="M4 7C4 4.79086 5.79086 3 8 3C10.2091 3 12 4.79086 12 7V10H4V7Z" fill="white"/>
<path d="M7 3C7 2.44772 7.44772 2 8 2C8.55228 2 9 2.44772 9 3V4H7V3Z" fill="white"/>
<path d="M3 10.5C3 10.2239 3.22386 10 3.5 10H12.5C12.7761 10 13 10.2239 13 10.5C13 10.7761 12.7761 11 12.5 11H3.5C3.22386 11 3 10.7761 3 10.5Z" fill="white"/>
<path fill-rule="evenodd" clip-rule="evenodd" d="M6 12C6 13.1046 6.89543 14 8 14C9.10457 14 10 13.1046 10 12H6Z" fill="white"/>
</g>
</svg>
