<svg width="15" height="15" viewBox="0 0 15 15" fill="none" xmlns="http://www.w3.org/2000/svg">
<path fill-rule="evenodd" clip-rule="evenodd" d="M5 1H13C13.5523 1 14 1.44772 14 2V10C14 10.5523 13.5523 11 13 11H12V12H13C14.1046 12 15 11.1046 15 10V2C15 0.895431 14.1046 0 13 0H5C3.89543 0 3 0.895431 3 2V3H4V2C4 1.44772 4.44772 1 5 1Z" fill="#31B59D"/>
<path fill-rule="evenodd" clip-rule="evenodd" d="M10 4H2C1.44772 4 1 4.44772 1 5V13C1 13.5523 1.44772 14 2 14H10C10.5523 14 11 13.5523 11 13V5C11 4.44772 10.5523 4 10 4ZM2 3C0.895431 3 0 3.89543 0 5V13C0 14.1046 0.895431 15 2 15H10C11.1046 15 12 14.1046 12 13V5C12 3.89543 11.1046 3 10 3H2Z" fill="#31B59D"/>
</svg>
